<?xml version="1.0" encoding="utf-8"?>
<!-- Generator: Adobe Illustrator 24.3.0, SVG Export Plug-In . SVG Version: 6.00 Build 0)  -->
<svg version="1.1" id="Слой_1" xmlns="http://www.w3.org/2000/svg" xmlns:xlink="http://www.w3.org/1999/xlink" x="0px" y="0px"
	 viewBox="0 0 2334.4 2733.6" style="enable-background:new 0 0 2334.4 2733.6;" xml:space="preserve">
<style type="text/css">
	.st0{fill-rule:evenodd;clip-rule:evenodd;fill:#FFD200;}
	.st1{fill-rule:evenodd;clip-rule:evenodd;fill:#EA5656;}
	.st2{fill:#0F227A;}
	.st3{fill-rule:evenodd;clip-rule:evenodd;fill:#AFDBF6;}
	.st4{fill:#FFFFFF;}
	.st5{opacity:0.2;}
	.st6{fill-rule:evenodd;clip-rule:evenodd;fill:#0F227A;}
	.st7{opacity:0.6;}
	.st8{fill-rule:evenodd;clip-rule:evenodd;fill:#FDFDFD;}
	.st9{fill-rule:evenodd;clip-rule:evenodd;fill:#1D386A;}
	.st10{fill-rule:evenodd;clip-rule:evenodd;fill:#FFFFFF;}
	.st11{fill-rule:evenodd;clip-rule:evenodd;fill:#FDFEFD;}
	.st12{fill-rule:evenodd;clip-rule:evenodd;fill:#D7557A;}
	.st13{fill-rule:evenodd;clip-rule:evenodd;fill:#ECB35B;}
	.st14{fill-rule:evenodd;clip-rule:evenodd;fill:#FED200;}
</style>
<g>
	<path class="st0" d="M539.5,2636.5c0-17.7,14.3-32.1,32.1-32.1c17.7,0,32.1,14.3,32.1,32.1c0,17.7-14.3,32.1-32.1,32.1
		C553.8,2668.5,539.5,2654.2,539.5,2636.5z"/>
	<path class="st1" d="M579.7,2622.7c5.8,1.9,13.1,3,17.6,0.7s11.4-7.8,14.8-3c4.1,5.8-8.4,19.6-25.7,20.3c0,0-27.7,35.1-36.2,27.5
		c-4.5-4,3.6-11.7,3.6-11.7l-1.1-18.7c0,0-4.6-0.3-4.7-4.9C548.1,2626.8,556,2615.2,579.7,2622.7z"/>
	<path class="st2" d="M553.3,2669.4c-1.2,0-2.3-0.4-3.1-1.1c-0.9-0.8-1.4-1.8-1.4-3c0-3.8,4.5-8.3,4.9-8.7l-1.1-18.6
		c-0.6-0.1-4.6-0.7-4.7-5c0-2.6,1.4-6.5,5.3-9.3c4.1-3,12-5.6,26.4-1.1l0,0c3.5,1.1,12.2,3.4,17.6,0.8c0.9-0.4,1.8-1,2.8-1.5
		c4.1-2.4,9.3-5.4,12.1-1.4c1.1,1.6,1.1,3.8-0.2,6.3c-1.6,3.3-5,6.6-9.3,9.2c-3.4,2.1-9.1,4.6-16.3,4.9c-0.4,0.5-5.7,7.2-12.2,13.9
		c-9,9.3-15.9,14.3-20.4,14.7C553.7,2669.4,553.5,2669.4,553.3,2669.4z M565.7,2620.3c-5.9,0-9.8,1.7-12.3,3.5
		c-3.8,2.8-5.2,6.6-5.2,9.2c0,4.4,4.5,4.8,4.6,4.8h0.1v0.1l1.1,18.7l0,0c0,0-5,4.7-4.9,8.6c0,1.2,0.5,2.1,1.3,2.9
		c0.9,0.8,2.1,1.2,3.5,1c10.7-0.9,32.3-28.3,32.5-28.5l0,0l0,0c7.2-0.3,12.8-2.8,16.3-4.9c4.3-2.6,7.6-5.9,9.2-9.1
		c1.2-2.4,1.2-4.6,0.2-6.1c-2.8-3.8-7.8-0.9-11.9,1.4c-1,0.6-1.9,1.1-2.8,1.5c-5.4,2.7-14.2,0.4-17.7-0.7l0,0
		C574.1,2621,569.5,2620.3,565.7,2620.3z"/>
	<path class="st2" d="M553.3,2670c-1.4,0-2.5-0.4-3.4-1.2c-1-0.9-1.6-2.1-1.6-3.5c0-3.8,3.9-8,4.9-9l-1-17.9
		c-1.9-0.3-4.7-1.8-4.7-5.5c0-2.8,1.4-6.8,5.5-9.8c4.2-3.1,12.3-5.8,26.9-1.1c7.1,2.3,13.6,2.6,17.2,0.8c0.8-0.4,1.8-1,2.8-1.5
		c2.1-1.2,4.5-2.6,6.7-3.2c2.7-0.7,4.8,0,6.2,1.9c1.2,1.7,1.2,4.2-0.1,6.8c-1.6,3.4-5.1,6.8-9.5,9.5c-3.5,2.1-9.1,4.6-16.3,5
		c-2.3,2.9-22.3,27.7-32.9,28.6C553.7,2670,553.5,2670,553.3,2670z M565.7,2620.9c-5.8,0-9.5,1.6-12,3.4c-3.7,2.7-5,6.4-5,8.7
		c0,3.9,3.9,4.2,4.1,4.2c0.3,0,0.6,0.3,0.6,0.6l1.1,18.7c0,0.2-0.1,0.4-0.2,0.5c0,0-4.8,4.6-4.7,8.2c0,1,0.4,1.8,1.2,2.5
		s1.8,1,3.1,0.9c10.4-0.9,31.9-28.1,32.2-28.3c0.1-0.1,0.3-0.2,0.5-0.2c11.7-0.5,21.9-7.3,25-13.7c1.1-2.2,1.2-4.2,0.2-5.5
		c-2.5-3.4-7.1-0.8-11.2,1.6c-1,0.6-2,1.1-2.8,1.6c-5.6,2.8-14.5,0.4-18.1-0.7l0,0C574,2621.6,569.4,2620.9,565.7,2620.9
		L565.7,2620.9z"/>
	<path class="st1" d="M556.1,2636.6c0,0-3.9-0.4-5.4,3.4c-1.5,3.7,1.2,6,1.2,6s-3.1,8.3,1.6,10.5s16.6-12.4,10.8-17.6"/>
	<path class="st2" d="M554.7,2656.8c-0.4,0-0.8-0.1-1.1-0.2c-4.6-2.1-2-9.8-1.7-10.6c-0.4-0.3-2.5-2.5-1.2-6
		c1.5-3.8,5.4-3.4,5.4-3.4v0.2c0,0-3.9-0.3-5.3,3.3c-1.4,3.6,1.2,5.8,1.2,5.9l0,0v0.1c0,0.1-3.1,8.2,1.6,10.4
		c2.5,1.2,6.9-2.5,9.6-6.5c2.4-3.6,3.9-8.4,1.1-10.9l0.1-0.1c2.9,2.6,1.3,7.4-1.1,11.1C561,2653.6,557.3,2656.8,554.7,2656.8z"/>
	<path class="st2" d="M554.7,2657.4c-0.5,0-0.9-0.1-1.4-0.3c-4.7-2.2-2.7-9.1-2.1-10.9c-1-1.1-2.2-3.4-1.1-6.4
		c1.3-3.3,4.5-3.9,6-3.8c0.4,0,0.6,0.4,0.6,0.7s-0.3,0.6-0.7,0.6c-0.1,0-3.4-0.3-4.7,3c-1.3,3.2,0.9,5.2,1,5.2
		c0.2,0.2,0.3,0.5,0.2,0.7c0,0.1-2.9,7.7,1.3,9.7c2,0.9,6-2,8.9-6.3c2.3-3.4,3.8-7.9,1.2-10.2c-0.3-0.2-0.3-0.6-0.1-0.9
		c0.2-0.3,0.6-0.3,0.9-0.1l0,0c3.2,2.8,1.6,8-1,11.8C561.4,2654,557.6,2657.4,554.7,2657.4z"/>
	<path class="st2" d="M586.4,2641.4c-0.4,0-0.6-0.3-0.6-0.6c0-0.1,0-0.3,0.1-0.4c0-0.1,3.7-5.3,4.8-7.3c0.2-0.3,0.6-0.4,0.9-0.2
		c0.3,0.2,0.4,0.5,0.2,0.8c-1.2,2.1-4.7,7.2-4.9,7.4C586.9,2641.3,586.7,2641.4,586.4,2641.4z"/>
	<path class="st2" d="M558,2637.7c-1.3,0-3.6-0.2-5.2-1.7c-1-1-1.5-2.3-1.5-4.1c0-2.9,2.1-5.5,5.4-6.5c3-1,5.8-0.3,7.3,1.7
		c2,2.7,0.7,5.1-0.4,6.2c-0.1,1.2-0.6,2.2-1.4,3c-1,1-2.5,1.4-3.4,1.3c0,0-0.1,0-0.2,0C558.4,2637.7,558.2,2637.7,558,2637.7z
		 M559.3,2626.3c-0.7,0-1.5,0.1-2.3,0.4c-2.1,0.7-4.5,2.5-4.5,5.3c0,1.4,0.4,2.4,1.1,3.1c1.4,1.4,3.9,1.3,4.8,1.3c0.1,0,0.2,0,0.3,0
		c0.5,0,1.7-0.2,2.5-1c0.6-0.6,1-1.4,1-2.4c0-0.2,0.1-0.4,0.2-0.5c0.2-0.2,2.2-2.1,0.4-4.7C562.1,2626.9,560.8,2626.3,559.3,2626.3z
		"/>
	<path class="st2" d="M553.3,2670c-1.3,0-2.5-0.4-3.4-1.2c-1-0.9-1.6-2.1-1.6-3.5c0-3.8,3.9-8,4.9-9l-0.1-1.6c0-0.3,0.2-0.6,0.5-0.7
		h0.1h0.1c0.1,0,2.1,0.1,4.4,1.4c2.2,1.1,5.1,3.5,6.7,8.1v0.1c0.1,0.2,0,0.5-0.2,0.7c-3.1,2.5-5.9,4.2-8.2,5
		C555.3,2669.8,554.2,2670,553.3,2670z M554.4,2655.5l0.1,1.1c0,0.2-0.1,0.4-0.2,0.5c0,0-4.8,4.6-4.7,8.2c0,1,0.4,1.8,1.2,2.5
		c2.3,2.1,6.6,0.7,12.8-4.2C561.2,2657.3,556.3,2655.8,554.4,2655.5L554.4,2655.5z M564.9,2663.6L564.9,2663.6z M564.9,2663.6
		L564.9,2663.6z M553.7,2654.7L553.7,2654.7z"/>
	<path class="st2" d="M551.9,2646.6c-0.4,0-0.6-0.3-0.6-0.6c0-0.1,0-0.2,0-0.2c0.1-0.1,1.5-3.6,3.5-5.4c0.3-0.2,0.7-0.2,0.9,0.1
		s0.2,0.7-0.1,0.9c-1.8,1.6-3.1,4.9-3.1,4.9C552.4,2646.5,552.2,2646.6,551.9,2646.6z"/>
	<path class="st2" d="M554.6,2657.3c-0.5,0-0.9-0.1-1.3-0.3c-4.7-2.2-2.7-9.2-2.1-10.9c-0.1-0.1-0.2-0.2-0.3-0.4
		c-0.2-0.2-0.2-0.6,0-0.8c0.5-0.6,1-1.2,1.6-1.5c0.1,0,0.1-0.1,0.2-0.1c0,0,0.5-0.1,1.3-0.1c2.1-0.1,7.3,0.3,10.4,5.4
		c0.1,0.2,0.1,0.5,0,0.7C561.9,2653.5,557.7,2657.3,554.6,2657.3z M552.2,2645.4c0.1,0.1,0.1,0.1,0.1,0.1c0.2,0.2,0.3,0.5,0.2,0.7
		c0,0.1-2.9,7.8,1.3,9.7c2.1,1,6.5-2.4,9.3-7c-2.7-4.1-6.8-4.5-9.1-4.4l0,0c-0.3,0-0.6,0-1,0.1
		C552.8,2644.8,552.5,2645.1,552.2,2645.4z M554,2643.8L554,2643.8z"/>
	<path class="st2" d="M578.6,2640.8c-2.8,0-9.5-3.4-10-5.5c-0.3-1.3-0.2-2.4-0.1-3c-1.6-0.7-6.6-2.9-9.6-3.7
		c-0.3-0.1-0.6-0.4-0.5-0.8c0.1-0.3,0.4-0.6,0.8-0.5l0,0c3.8,0.9,10.1,3.8,10.3,4c0.3,0.1,0.4,0.5,0.3,0.8c0,0-0.4,1.2,0,2.9
		c0.1,0.5,1.5,1.7,3.8,2.9c2.1,1.1,4.2,1.7,5.1,1.6c1.9-0.3,3.1-1.8,3.2-1.9c0.2-0.2,0.5-0.3,0.7-0.2l4.6,1.7
		c0.3,0.1,0.5,0.5,0.4,0.8s-0.5,0.5-0.8,0.4l-4.2-1.5c-0.6,0.6-1.9,1.7-3.7,2C578.8,2640.8,578.7,2640.8,578.6,2640.8z"/>
	<path class="st2" d="M562.9,2633.7L562.9,2633.7c-0.4,0-0.7-0.3-0.6-0.7c0,0,0.1-1.7-0.9-2.5c-0.7-0.5-1.7-0.6-3.1-0.2
		c-0.3,0.1-0.7-0.1-0.8-0.4c-0.1-0.3,0.1-0.7,0.4-0.8c1.8-0.5,3.2-0.4,4.2,0.4c1.5,1.2,1.4,3.4,1.4,3.5
		C563.5,2633.5,563.3,2633.7,562.9,2633.7z"/>
	<path class="st2" d="M607,2628.2c-1.6,0-3.3-0.7-3.9-1c-0.3-0.2-0.4-0.6-0.3-0.9c0.2-0.3,0.6-0.4,0.9-0.3l0,0
		c0.8,0.4,3,1.2,4.4,0.7c0.4-0.2,0.7-0.5,0.9-1c0.1-0.4,0.1-0.7-0.1-1c-0.7-1.1-2.8-1.7-3.6-1.9c-0.3-0.1-0.6-0.4-0.5-0.8
		c0.1-0.3,0.4-0.6,0.7-0.5s3.4,0.7,4.4,2.5c0.4,0.6,0.5,1.3,0.2,2c-0.3,0.9-0.8,1.5-1.6,1.8C608,2628.1,607.5,2628.2,607,2628.2z"/>
	<path class="st1" d="M579.7,2622.7c5.8,1.9,13.1,3,17.6,0.7s11.4-7.8,14.8-3c4.1,5.8-8.4,19.6-25.7,20.3c0,0-27.7,35.1-36.2,27.5
		c-4.5-4,3.6-11.7,3.6-11.7l-1.1-18.7c0,0-4.6-0.3-4.7-4.9C548.1,2626.8,556,2615.2,579.7,2622.7z"/>
	<path class="st2" d="M553.3,2669.4c-1.2,0-2.3-0.4-3.1-1.1c-0.9-0.8-1.4-1.8-1.4-3c0-3.8,4.5-8.3,4.9-8.7l-1.1-18.6
		c-0.6-0.1-4.6-0.7-4.7-5c0-2.6,1.4-6.5,5.3-9.3c4.1-3,12-5.6,26.4-1.1l0,0c3.5,1.1,12.2,3.4,17.6,0.8c0.9-0.4,1.8-1,2.8-1.5
		c4.1-2.4,9.3-5.4,12.1-1.4c1.1,1.6,1.1,3.8-0.2,6.3c-1.6,3.3-5,6.6-9.3,9.2c-3.4,2.1-9.1,4.6-16.3,4.9c-0.4,0.5-5.7,7.2-12.2,13.9
		c-9,9.3-15.9,14.3-20.4,14.7C553.7,2669.4,553.5,2669.4,553.3,2669.4z M565.7,2620.3c-5.9,0-9.8,1.7-12.3,3.5
		c-3.8,2.8-5.2,6.6-5.2,9.2c0,4.4,4.5,4.8,4.6,4.8h0.1v0.1l1.1,18.7l0,0c0,0-5,4.7-4.9,8.6c0,1.2,0.5,2.1,1.3,2.9
		c0.9,0.8,2.1,1.2,3.5,1c10.7-0.9,32.3-28.3,32.5-28.5l0,0l0,0c7.2-0.3,12.8-2.8,16.3-4.9c4.3-2.6,7.6-5.9,9.2-9.1
		c1.2-2.4,1.2-4.6,0.2-6.1c-2.8-3.8-7.8-0.9-11.9,1.4c-1,0.6-1.9,1.1-2.8,1.5c-5.4,2.7-14.2,0.4-17.7-0.7l0,0
		C574.1,2621,569.5,2620.3,565.7,2620.3z"/>
	<path class="st2" d="M553.3,2670c-1.4,0-2.5-0.4-3.4-1.2c-1-0.9-1.6-2.1-1.6-3.5c0-3.8,3.9-8,4.9-9l-1-17.9
		c-1.9-0.3-4.7-1.8-4.7-5.5c0-2.8,1.4-6.8,5.5-9.8c4.2-3.1,12.3-5.8,26.9-1.1c7.1,2.3,13.6,2.6,17.2,0.8c0.8-0.4,1.8-1,2.8-1.5
		c2.1-1.2,4.5-2.6,6.7-3.2c2.7-0.7,4.8,0,6.2,1.9c1.2,1.7,1.2,4.2-0.1,6.8c-1.6,3.4-5.1,6.8-9.5,9.5c-3.5,2.1-9.1,4.6-16.3,5
		c-2.3,2.9-22.3,27.7-32.9,28.6C553.7,2670,553.5,2670,553.3,2670z M565.7,2620.9c-5.8,0-9.5,1.6-12,3.4c-3.7,2.7-5,6.4-5,8.7
		c0,3.9,3.9,4.2,4.1,4.2c0.3,0,0.6,0.3,0.6,0.6l1.1,18.7c0,0.2-0.1,0.4-0.2,0.5c0,0-4.8,4.6-4.7,8.2c0,1,0.4,1.8,1.2,2.5
		s1.8,1,3.1,0.9c10.4-0.9,31.9-28.1,32.2-28.3c0.1-0.1,0.3-0.2,0.5-0.2c11.7-0.5,21.9-7.3,25-13.7c1.1-2.2,1.2-4.2,0.2-5.5
		c-2.5-3.4-7.1-0.8-11.2,1.6c-1,0.6-2,1.1-2.8,1.6c-5.6,2.8-14.5,0.4-18.1-0.7l0,0C574,2621.6,569.4,2620.9,565.7,2620.9
		L565.7,2620.9z"/>
	<path class="st1" d="M556.1,2636.6c0,0-3.9-0.4-5.4,3.4c-1.5,3.7,1.2,6,1.2,6s-3.1,8.3,1.6,10.5s16.6-12.4,10.8-17.6"/>
	<path class="st2" d="M554.7,2656.8c-0.4,0-0.8-0.1-1.1-0.2c-4.6-2.1-2-9.8-1.7-10.6c-0.4-0.3-2.5-2.5-1.2-6
		c1.5-3.8,5.4-3.4,5.4-3.4v0.2c0,0-3.9-0.3-5.3,3.3c-1.4,3.6,1.2,5.8,1.2,5.9l0,0v0.1c0,0.1-3.1,8.2,1.6,10.4
		c2.5,1.2,6.9-2.5,9.6-6.5c2.4-3.6,3.9-8.4,1.1-10.9l0.1-0.1c2.9,2.6,1.3,7.4-1.1,11.1C561,2653.6,557.3,2656.8,554.7,2656.8z"/>
	<path class="st2" d="M554.7,2657.4c-0.5,0-0.9-0.1-1.4-0.3c-4.7-2.2-2.7-9.1-2.1-10.9c-1-1.1-2.2-3.4-1.1-6.4
		c1.3-3.3,4.5-3.9,6-3.8c0.4,0,0.6,0.4,0.6,0.7s-0.3,0.6-0.7,0.6c-0.1,0-3.4-0.3-4.7,3c-1.3,3.2,0.9,5.2,1,5.2
		c0.2,0.2,0.3,0.5,0.2,0.7c0,0.1-2.9,7.7,1.3,9.7c2,0.9,6-2,8.9-6.3c2.3-3.4,3.8-7.9,1.2-10.2c-0.3-0.2-0.3-0.6-0.1-0.9
		c0.2-0.3,0.6-0.3,0.9-0.1l0,0c3.2,2.8,1.6,8-1,11.8C561.4,2654,557.6,2657.4,554.7,2657.4z"/>
	<path class="st2" d="M586.4,2641.4c-0.4,0-0.6-0.3-0.6-0.6c0-0.1,0-0.3,0.1-0.4c0-0.1,3.7-5.3,4.8-7.3c0.2-0.3,0.6-0.4,0.9-0.2
		c0.3,0.2,0.4,0.5,0.2,0.8c-1.2,2.1-4.7,7.2-4.9,7.4C586.9,2641.3,586.7,2641.4,586.4,2641.4z"/>
	<path class="st2" d="M558,2637.7c-1.3,0-3.6-0.2-5.2-1.7c-1-1-1.5-2.3-1.5-4.1c0-2.9,2.1-5.5,5.4-6.5c3-1,5.8-0.3,7.3,1.7
		c2,2.7,0.7,5.1-0.4,6.2c-0.1,1.2-0.6,2.2-1.4,3c-1,1-2.5,1.4-3.4,1.3c0,0-0.1,0-0.2,0C558.4,2637.7,558.2,2637.7,558,2637.7z
		 M559.3,2626.3c-0.7,0-1.5,0.1-2.3,0.4c-2.1,0.7-4.5,2.5-4.5,5.3c0,1.4,0.4,2.4,1.1,3.1c1.4,1.4,3.9,1.3,4.8,1.3c0.1,0,0.2,0,0.3,0
		c0.5,0,1.7-0.2,2.5-1c0.6-0.6,1-1.4,1-2.4c0-0.2,0.1-0.4,0.2-0.5c0.2-0.2,2.2-2.1,0.4-4.7C562.1,2626.9,560.8,2626.3,559.3,2626.3z
		"/>
	<path class="st2" d="M553.3,2670c-1.3,0-2.5-0.4-3.4-1.2c-1-0.9-1.6-2.1-1.6-3.5c0-3.8,3.9-8,4.9-9l-0.1-1.6c0-0.3,0.2-0.6,0.5-0.7
		h0.1h0.1c0.1,0,2.1,0.1,4.4,1.4c2.2,1.1,5.1,3.5,6.7,8.1v0.1c0.1,0.2,0,0.5-0.2,0.7c-3.1,2.5-5.9,4.2-8.2,5
		C555.3,2669.8,554.2,2670,553.3,2670z M554.4,2655.5l0.1,1.1c0,0.2-0.1,0.4-0.2,0.5c0,0-4.8,4.6-4.7,8.2c0,1,0.4,1.8,1.2,2.5
		c2.3,2.1,6.6,0.7,12.8-4.2C561.2,2657.3,556.3,2655.8,554.4,2655.5L554.4,2655.5z M564.9,2663.6L564.9,2663.6z M564.9,2663.6
		L564.9,2663.6z M553.7,2654.7L553.7,2654.7z"/>
	<path class="st2" d="M551.9,2646.6c-0.4,0-0.6-0.3-0.6-0.6c0-0.1,0-0.2,0-0.2c0.1-0.1,1.5-3.6,3.5-5.4c0.3-0.2,0.7-0.2,0.9,0.1
		s0.2,0.7-0.1,0.9c-1.8,1.6-3.1,4.9-3.1,4.9C552.4,2646.5,552.2,2646.6,551.9,2646.6z"/>
	<path class="st2" d="M554.6,2657.3c-0.5,0-0.9-0.1-1.3-0.3c-4.7-2.2-2.7-9.2-2.1-10.9c-0.1-0.1-0.2-0.2-0.3-0.4
		c-0.2-0.2-0.2-0.6,0-0.8c0.5-0.6,1-1.2,1.6-1.5c0.1,0,0.1-0.1,0.2-0.1c0,0,0.5-0.1,1.3-0.1c2.1-0.1,7.3,0.3,10.4,5.4
		c0.1,0.2,0.1,0.5,0,0.7C561.9,2653.5,557.7,2657.3,554.6,2657.3z M552.2,2645.4c0.1,0.1,0.1,0.1,0.1,0.1c0.2,0.2,0.3,0.5,0.2,0.7
		c0,0.1-2.9,7.8,1.3,9.7c2.1,1,6.5-2.4,9.3-7c-2.7-4.1-6.8-4.5-9.1-4.4l0,0c-0.3,0-0.6,0-1,0.1
		C552.8,2644.8,552.5,2645.1,552.2,2645.4z M554,2643.8L554,2643.8z"/>
	<path class="st2" d="M578.6,2640.8c-2.8,0-9.5-3.4-10-5.5c-0.3-1.3-0.2-2.4-0.1-3c-1.6-0.7-6.6-2.9-9.6-3.7
		c-0.3-0.1-0.6-0.4-0.5-0.8c0.1-0.3,0.4-0.6,0.8-0.5l0,0c3.8,0.9,10.1,3.8,10.3,4c0.3,0.1,0.4,0.5,0.3,0.8c0,0-0.4,1.2,0,2.9
		c0.1,0.5,1.5,1.7,3.8,2.9c2.1,1.1,4.2,1.7,5.1,1.6c1.9-0.3,3.1-1.8,3.2-1.9c0.2-0.2,0.5-0.3,0.7-0.2l4.6,1.7
		c0.3,0.1,0.5,0.5,0.4,0.8s-0.5,0.5-0.8,0.4l-4.2-1.5c-0.6,0.6-1.9,1.7-3.7,2C578.8,2640.8,578.7,2640.8,578.6,2640.8z"/>
	<path class="st2" d="M562.9,2633.7L562.9,2633.7c-0.4,0-0.7-0.3-0.6-0.7c0,0,0.1-1.7-0.9-2.5c-0.7-0.5-1.7-0.6-3.1-0.2
		c-0.3,0.1-0.7-0.1-0.8-0.4c-0.1-0.3,0.1-0.7,0.4-0.8c1.8-0.5,3.2-0.4,4.2,0.4c1.5,1.2,1.4,3.4,1.4,3.5
		C563.5,2633.5,563.3,2633.7,562.9,2633.7z"/>
	<path class="st2" d="M607,2628.2c-1.6,0-3.3-0.7-3.9-1c-0.3-0.2-0.4-0.6-0.3-0.9c0.2-0.3,0.6-0.4,0.9-0.3l0,0
		c0.8,0.4,3,1.2,4.4,0.7c0.4-0.2,0.7-0.5,0.9-1c0.1-0.4,0.1-0.7-0.1-1c-0.7-1.1-2.8-1.7-3.6-1.9c-0.3-0.1-0.6-0.4-0.5-0.8
		c0.1-0.3,0.4-0.6,0.7-0.5s3.4,0.7,4.4,2.5c0.4,0.6,0.5,1.3,0.2,2c-0.3,0.9-0.8,1.5-1.6,1.8C608,2628.1,607.5,2628.2,607,2628.2z"/>
	<path class="st3" d="M579.7,2622.7c5.8,1.9,13.1,3,17.6,0.7s11.4-7.8,14.8-3c4.1,5.8-8.4,19.6-25.7,20.3c0,0-27.7,35.1-36.2,27.5
		c-4.5-4,3.6-11.7,3.6-11.7l-1.1-18.7c0,0-4.6-0.3-4.7-4.9C548.1,2626.8,556,2615.2,579.7,2622.7z"/>
	<path class="st4" d="M598.3,2624.9c0,0,0.7,9.6,9.5,7.9l4-5.7l1.2-3.2l-0.2-2.4l-1.5-2.1l-2.2-0.5
		C609,2618.9,603.8,2620.4,598.3,2624.9z"/>
	<g class="st5">
		<path class="st6" d="M588.9,2634.1c-8.1,10.5-32.3,37.7-40,31.1c0,1.1,0.4,2.1,1.3,3c8.5,7.6,36.2-27.5,36.2-27.5
			c0.6,0,4.3-7.3,4.9-7.4C591.6,2632.4,590.3,2632.2,588.9,2634.1z"/>
	</g>
	<g class="st5">
		<path class="st6" d="M550.3,2626.8c-1.4,2.1-2.1,4.3-2.1,6c0,4.1,3.7,4.8,4.4,4.8c4.7-1.7,8.2-7.4,8.2-7.4
			C548.6,2637.5,549.8,2629.2,550.3,2626.8z"/>
	</g>
	<path class="st0" d="M553.8,2654.7L553.8,2654.7l0.1,1.9c0,0-8.1,7.6-3.6,11.7c3,2.7,8.3,0,14-4.5c0,0,0,0,0-0.1
		C561.3,2655.2,553.8,2654.7,553.8,2654.7z"/>
	<g class="st7">
		<path class="st8" d="M554.5,2655.8c0,0,7.2,3.3,7.4,7c0,1.3-1.7,3.6-5.4,5.9c0,0,6.2-3.3,8-5c0,0-4.3-10.5-10.2-7.5"/>
	</g>
	<g class="st5">
		<path class="st6" d="M563,2660.9c-5.9,4.4-11.1,6.8-14.1,4.4c0,0.1,0,0.2,0,0.3s0,0.2,0,0.3c0,0.2,0.1,0.4,0.1,0.6
			c0,0.1,0,0.2,0.1,0.3c0.1,0.2,0.2,0.5,0.3,0.7c0,0,0,0.1,0.1,0.1c0.2,0.3,0.4,0.5,0.7,0.8c0.1,0,0.1,0.1,0.2,0.1
			c0.2,0.1,0.3,0.3,0.5,0.4c0.1,0.1,0.2,0.1,0.3,0.2c0.2,0.1,0.4,0.2,0.6,0.2c0.1,0,0.2,0.1,0.3,0.1c0.3,0.1,0.6,0.1,0.9,0.1
			c0.1,0,0.1,0,0.2,0c0.3,0,0.6,0,0.8-0.1c0.1,0,0.2,0,0.3,0s0.2,0,0.3-0.1c0.5-0.1,0.9-0.2,1.4-0.4c0.1,0,0.2-0.1,0.3-0.1
			c1.2-0.4,2.4-1.1,3.7-1.9c1.1-0.7,2.2-1.5,3.3-2.3c0.3-0.2,0.6-0.4,0.9-0.7c0,0,0,0,0-0.1C564,2662.8,563.5,2661.8,563,2660.9z"/>
	</g>
	<g class="st7">
		<path class="st8" d="M587.2,2639.8c0,0-4.2-2.7-5.6-1.7c-1.4,1.1-1.3,1.8-2.7,1.9c-1.4,0.1-8.7-2.5-9.4-4.7
			c-0.8-2.2,0.3-1.6,0-3.2c-0.3-1.5-5-3.5-8.2-4.2c0,0-1,0.6,0.1,0.9c3.8,1.1,6.8,2.7,7,3.6c0.1,0.7-0.5,1.7,0,3.2
			c0.7,2,8.2,6,10.4,5.6c2.4-0.4,2.3-1.7,3.4-2.1c0.6-0.2,0.9-0.2,4.4,1.2"/>
	</g>
	<g class="st7">
		<path class="st8" d="M608.1,2618.5c-0.9,0.1-1.9,0.3-2.9,0.7c8.7,0.2,6.2,8.3,6.2,8.3s0.1,0,0.1-0.1c1.6-2.7,1.9-5.3,0.6-7.1
			C611.1,2618.9,609.7,2618.4,608.1,2618.5z"/>
	</g>
	<path class="st2" d="M553.3,2670c-1.4,0-2.5-0.4-3.4-1.2c-1-0.9-1.6-2.1-1.6-3.5c0-3.8,3.9-8,4.9-9l-1-17.9
		c-1.9-0.3-4.7-1.8-4.7-5.5c0-2.8,1.4-6.8,5.5-9.8c4.2-3.1,12.3-5.8,26.9-1.1c7.1,2.3,13.6,2.6,17.2,0.8c0.8-0.4,1.8-1,2.8-1.5
		c2.1-1.2,4.5-2.6,6.7-3.2c2.7-0.7,4.8,0,6.2,1.9c1.2,1.7,1.2,4.2-0.1,6.8c-1.6,3.4-5.1,6.8-9.5,9.5c-3.5,2.1-9.1,4.6-16.3,5
		c-2.3,2.9-22.3,27.7-32.9,28.6C553.7,2670,553.5,2670,553.3,2670z M565.7,2620.9c-5.8,0-9.5,1.6-12,3.4c-3.7,2.7-5,6.4-5,8.7
		c0,3.9,3.9,4.2,4.1,4.2c0.3,0,0.6,0.3,0.6,0.6l1.1,18.7c0,0.2-0.1,0.4-0.2,0.5c0,0-4.8,4.6-4.7,8.2c0,1,0.4,1.8,1.2,2.5
		s1.8,1,3.1,0.9c10.4-0.9,31.9-28.1,32.2-28.3c0.1-0.1,0.3-0.2,0.5-0.2c11.7-0.5,21.9-7.3,25-13.7c1.1-2.2,1.2-4.2,0.2-5.5
		c-2.5-3.4-7.1-0.8-11.2,1.6c-1,0.6-2,1.1-2.8,1.6c-5.6,2.8-14.5,0.4-18.1-0.7l0,0C574,2621.6,569.4,2620.9,565.7,2620.9
		L565.7,2620.9z"/>
	<path class="st2" d="M585.9,2640.4c0.4-0.6,0.8-1.2,1.2-1.8s0.9-1.2,1.3-1.8c0.5-0.6,0.9-1.2,1.4-1.7l1.4-1.7l0,0h0.1l0,0v0.1
		c-0.3,0.7-0.6,1.4-0.9,2c-0.3,0.7-0.7,1.3-1.1,2c-0.4,0.6-0.7,1.3-1.1,1.9s-0.8,1.2-1.3,1.8c-0.2,0.3-0.6,0.3-0.9,0.1
		C585.8,2641,585.8,2640.7,585.9,2640.4L585.9,2640.4z"/>
	<path class="st2" d="M553.3,2670c-1.3,0-2.5-0.4-3.4-1.2c-1-0.9-1.6-2.1-1.6-3.5c0-3.8,3.9-8,4.9-9l-0.1-1.6c0-0.3,0.2-0.6,0.5-0.7
		h0.1h0.1c0.1,0,2.1,0.1,4.4,1.4c2.2,1.1,5.1,3.5,6.7,8.1v0.1c0.1,0.2,0,0.5-0.2,0.7c-3.1,2.5-5.9,4.2-8.2,5
		C555.3,2669.8,554.2,2670,553.3,2670z M554.4,2655.5l0.1,1.1c0,0.2-0.1,0.4-0.2,0.5c0,0-4.8,4.6-4.7,8.2c0,1,0.4,1.8,1.2,2.5
		c2.3,2.1,6.6,0.7,12.8-4.2C561.2,2657.3,556.3,2655.8,554.4,2655.5L554.4,2655.5z M564.9,2663.6L564.9,2663.6z M564.9,2663.6
		L564.9,2663.6z M553.7,2654.7L553.7,2654.7z"/>
	<path class="st2" d="M578.6,2640.6c-2.7,0-9.3-3.3-9.7-5.3c-0.2-1,0-1.6,0.2-2.1c0.2-0.4,0.2-0.6-0.1-1c-1.3-1.8-4.5-2.6-7.7-3.2
		c-0.8-0.2-1.5-0.3-2.3-0.5c-0.2-0.1-0.3-0.3-0.3-0.5s0.3-0.3,0.5-0.3c0.7,0.2,1.5,0.3,2.3,0.5c3.3,0.7,6.7,1.5,8.2,3.6
		c0.5,0.8,0.3,1.3,0.2,1.8c-0.2,0.4-0.3,0.8-0.1,1.6c0.3,1.5,7.1,5,9.2,4.7c0.9-0.1,1.2-0.5,1.6-0.9c0.4-0.5,0.8-1,2-1.1
		c1.8-0.1,4.7,1.6,4.9,1.6c0.2,0.1,0.3,0.4,0.1,0.6c-0.1,0.2-0.4,0.3-0.6,0.1c0,0-2.8-1.6-4.4-1.5c-0.8,0.1-1.1,0.4-1.4,0.8
		c-0.4,0.5-0.8,1-2.1,1.2C578.8,2640.6,578.7,2640.6,578.6,2640.6z"/>
	<g class="st7">
		<path class="st8" d="M609.5,2626c0,0-2.3-2.8-7.7-3l0.9-1.2C602.7,2621.8,609.9,2622.2,609.5,2626z"/>
	</g>
	<g class="st5">
		<path class="st2" d="M604,2625c-0.4-0.2-0.9-0.1-1.2,0.2c-0.1,0.1-0.1,0.1-0.2,0.2c0.1,0.5,0.4,1.3,1.4,2c0.1-0.1,0.1-0.2,0.2-0.3
			c0.3,0.1,0.6,0.2,0.9,0.2c1.5,0.3,4.5,0.5,4.5-2.5C609.6,2624.9,609.1,2627.3,604,2625z"/>
	</g>
	<path class="st2" d="M605.3,2622.1c0.6-0.1,1.2-0.1,1.8,0c0.6,0.2,1.1,0.4,1.7,0.7c0.3,0.2,0.5,0.4,0.8,0.6
		c0.2,0.3,0.4,0.6,0.6,0.9c0.1,0.4,0.2,0.7,0.2,1.1c0,0.1,0,0.2,0,0.3l-0.1,0.3c-0.1,0.2-0.1,0.3-0.2,0.5c-0.2,0.3-0.4,0.6-0.6,0.9
		c-0.3,0.2-0.6,0.4-0.9,0.6c-0.7,0.3-1.3,0.3-1.9,0.2c-0.6-0.1-1.2-0.2-1.7-0.5s-1-0.6-1.4-1c0,0,0-0.1,0-0.2h0.1l0,0
		c0.6,0,1.1,0.1,1.6,0.2c0.5,0.1,1,0.1,1.5,0.1s1,0,1.4-0.1s0.7-0.4,0.8-0.7c0-0.1,0.1-0.2,0.1-0.3v-0.1v-0.1c0-0.2,0-0.3-0.1-0.5
		c-0.2-0.3-0.5-0.6-0.8-0.9c-0.4-0.3-0.8-0.5-1.3-0.8s-0.9-0.5-1.4-0.9l0,0C605.2,2622.3,605.2,2622.2,605.3,2622.1L605.3,2622.1
		L605.3,2622.1z"/>
	<g class="st5">
		<path class="st6" d="M604.9,2619.6c-2.5,1.1-5.1,2.8-7.2,3.8c-4.5,2.2-11.8,1.1-17.6-0.8c-7.9-2.5-14.1-2.9-18.8-2
			c3.9,8,12.1,13.4,21.5,13.4C592.7,2634.1,601.2,2628.1,604.9,2619.6z"/>
	</g>
	<path class="st0" d="M598.9,2614.6c1.3-3.7,4.5-6,7.1-5.1s3.8,4.7,2.5,8.4s-4.5,6-7.1,5.1S597.6,2618.4,598.9,2614.6z"/>
	<g class="st5">
		<path class="st9" d="M599.1,2614.1c-0.1,0.1-0.1,0.3-0.2,0.4c-1.3,3.7-0.2,7.5,2.5,8.4s5.8-1.4,7.1-5.1c0.3-1,0.5-2,0.5-3
			c-1.4,3.5-4.4,5.6-6.9,4.7C600.1,2618.8,599,2616.6,599.1,2614.1z"/>
		<path class="st2" d="M602.6,2623.1c-0.4,0-0.8-0.1-1.2-0.2c-2.7-0.9-3.8-4.7-2.5-8.5c0-0.1,0.1-0.2,0.1-0.2c0-0.1,0-0.1,0.1-0.2
			l0.2-0.4v0.5c0,2.6,1.1,4.7,2.9,5.3c2.5,0.8,5.5-1.2,6.8-4.7l0.2-0.4v0.5c0,1-0.2,2-0.5,3c-0.6,1.8-1.7,3.4-3.1,4.3
			C604.6,2622.8,603.6,2623.1,602.6,2623.1z M599,2614.5L599,2614.5c-1.3,3.7-0.2,7.4,2.4,8.3c1.3,0.4,2.7,0.1,4-0.8
			c1.3-0.9,2.4-2.5,3-4.2c0.3-0.8,0.4-1.6,0.5-2.5c-1.5,3.3-4.4,5.2-6.9,4.3C600.3,2618.9,599.1,2617,599,2614.5z"/>
	</g>
	<g class="st7">
		<path class="st8" d="M605.2,2609.2c-0.7,0-1.4,0.1-2.1,0.5c5.3,2,5.9,6,6,7c0.7-3.3-0.4-6.4-2.8-7.2
			C605.9,2609.3,605.6,2609.2,605.2,2609.2z"/>
	</g>
	<path class="st2" d="M602.6,2623.9c-0.5,0-0.9-0.1-1.4-0.2c-3-1-4.3-5.2-2.9-9.2l0,0c1.4-4.1,4.9-6.5,7.9-5.5s4.3,5.2,2.9,9.2
		C607.9,2621.6,605.2,2623.9,602.6,2623.9z M599.5,2614.8c-1.2,3.4-0.2,6.8,2.1,7.6c0.3,0.1,0.7,0.2,1,0.2c2.1,0,4.3-2,5.3-4.9
		c1.2-3.4,0.2-6.8-2.1-7.6S600.7,2611.5,599.5,2614.8L599.5,2614.8z"/>
	<path class="st3" d="M561,2608.3c0-12.1,10.3-21.9,23.1-21.9s23.1,9.8,23.1,21.9c0,12.1-10.3,21.9-23.1,21.9S561,2620.4,561,2608.3
		z"/>
	<g class="st7">
		<path class="st8" d="M584.2,2586.3c-7,0-13.2,3-17.5,7.6c4.2-3.5,13.4-8.1,24.6-4.5c1.1,0.4,2.1,0.8,3.1,1.3
			c-0.2,0.4,0.6,1.4,1.8,2.2c1.2,0.7,2.3,1.1,2.7,0.8c6.3,5.4,8,12.9,8.3,14.5C607.3,2596.1,597,2586.3,584.2,2586.3z"/>
	</g>
	<g class="st7">
		<path class="st8" d="M584.1,2585.8c-0.4,0-0.7,0-1.1,0.1c0,0.4-0.1,0.9-0.1,1.4c0,0.1,0,0.3,0,0.4c2.6,0,5.4,0.4,8.3,1.3
			c1.1,0.4,2.1,0.8,3.1,1.3c-0.2,0.4,0.6,1.4,1.8,2.2c1.2,0.7,2.3,1.1,2.7,0.8c2.6,2.3,4.5,4.9,5.7,7.3c0.4-0.2,0.8-0.3,1.1-0.5
			c-0.2-0.5-0.4-1-0.7-1.5l0,0l0,0c-0.7-1.5-1.6-2.9-2.7-4.2c-0.3-0.4-0.7-0.8-1-1.2c-0.1-0.1-0.1-0.1-0.2-0.2
			c-0.3-0.4-0.7-0.7-1.1-1.1l0,0c0,0,0,0-0.1-0.1c-0.7-0.6-1.4-1.2-2.1-1.7c-0.2-0.1-0.4-0.3-0.6-0.4c-0.3-0.2-0.6-0.4-0.9-0.5
			c-0.3-0.2-0.5-0.3-0.8-0.5s-0.6-0.3-1-0.5c-0.3-0.1-0.6-0.3-0.9-0.4c-0.3-0.1-0.6-0.3-0.9-0.4c-0.6-0.2-1.2-0.4-1.8-0.6
			c-0.2-0.1-0.4-0.1-0.7-0.2c-0.5-0.1-0.9-0.2-1.4-0.3c-0.3-0.1-0.5-0.1-0.8-0.1c-0.4-0.1-0.9-0.1-1.3-0.2c-0.2,0-0.5-0.1-0.7-0.1
			C585.6,2585.9,584.9,2585.8,584.1,2585.8z"/>
		<path class="st2" d="M604.6,2600.7L604.6,2600.7c-1.5-2.9-3.4-5.4-5.7-7.3c-0.5,0.2-1.6-0.1-2.7-0.8c-1.2-0.8-2-1.7-1.9-2.2
			c-1.1-0.5-2.1-0.9-3-1.3c-2.7-0.9-5.5-1.3-8.3-1.3h-0.1v-0.1c0-0.1,0-0.1,0-0.2c0-0.1,0-0.2,0-0.2c0-0.5,0-0.9,0.1-1.4v-0.1h0.1
			c0.1,0,0.3,0,0.4,0c0.9-0.1,1.8,0,2.8,0.1c0.2,0,0.4,0,0.6,0.1h0.1c0.4,0,0.9,0.1,1.3,0.2h0.1c0.2,0,0.5,0.1,0.7,0.1
			c0.5,0.1,1,0.2,1.4,0.3c0.1,0,0.2,0,0.3,0.1c0.1,0,0.3,0.1,0.4,0.1c0.6,0.2,1.2,0.4,1.8,0.6c0.2,0.1,0.5,0.2,0.7,0.3l0.2,0.1
			c0.3,0.1,0.6,0.3,0.9,0.4c0.3,0.2,0.7,0.3,1,0.5s0.5,0.3,0.8,0.5l0.1,0.1c0.2,0.1,0.5,0.3,0.7,0.5c0.1,0.1,0.2,0.2,0.4,0.2
			c0.1,0.1,0.1,0.1,0.2,0.2c0.7,0.5,1.5,1.1,2.1,1.7l0,0l0,0c0.3,0.3,0.7,0.6,1.1,1.1l0.1,0.1l0.1,0.1c0.4,0.4,0.7,0.8,1,1.2
			c1.1,1.3,2,2.7,2.7,4.2l0,0c0.2,0.5,0.5,1,0.7,1.5v0.1h-0.1c-0.3,0.2-0.6,0.3-0.9,0.4L604.6,2600.7z M598.9,2593.1L598.9,2593.1
			c2.3,2,4.2,4.4,5.8,7.3l0.1-0.1c0.3-0.1,0.6-0.2,0.8-0.4c-0.2-0.5-0.4-1-0.6-1.4l0,0l0,0c-0.7-1.5-1.6-2.9-2.7-4.2
			c-0.3-0.4-0.7-0.8-1-1.2l-0.1-0.1l-0.1-0.1c-0.4-0.4-0.7-0.8-1.1-1l0,0l0,0c-0.7-0.6-1.4-1.2-2.1-1.7c-0.1-0.1-0.1-0.1-0.2-0.2
			c-0.1-0.1-0.2-0.2-0.3-0.2c-0.2-0.2-0.5-0.3-0.7-0.5l-0.1-0.1c-0.3-0.2-0.5-0.3-0.8-0.5s-0.6-0.3-1-0.5c-0.3-0.1-0.6-0.3-0.8-0.4
			l-0.2-0.1c-0.2-0.1-0.4-0.2-0.7-0.3c-0.6-0.2-1.2-0.4-1.8-0.6c-0.1,0-0.3-0.1-0.4-0.1c-0.1,0-0.2,0-0.3-0.1
			c-0.4-0.1-0.9-0.2-1.4-0.3c-0.2,0-0.5-0.1-0.7-0.1h-0.1c-0.5-0.1-0.9-0.1-1.3-0.2H587c-0.2,0-0.4,0-0.6-0.1
			c-1-0.1-1.9-0.1-2.8-0.1c-0.1,0-0.2,0-0.3,0c0,0.5-0.1,0.9-0.1,1.3c0,0.1,0,0.2,0,0.2v0.1c2.8,0,5.5,0.5,8.2,1.3
			c1,0.3,2,0.7,3.1,1.3h0.1v0.1c-0.1,0.3,0.5,1.2,1.8,2.1C597.5,2593.2,598.5,2593.4,598.9,2593.1L598.9,2593.1z"/>
	</g>
	<path class="st1" d="M584.2,2586.3c-0.4,0-0.7,0-1.1,0.1c0,0.5-0.1,0.9-0.1,1.4c0,8,6.9,14.5,15.4,14.5c2.7,0,5.2-0.6,7.3-1.7
		C602.5,2592.3,594.1,2586.3,584.2,2586.3z"/>
	<path class="st2" d="M598.5,2602.4c-8.6,0-15.5-6.6-15.5-14.6c0-0.4,0-0.9,0.1-1.4v-0.1h0.1c0.1,0,0.3,0,0.4,0c0.2,0,0.5,0,0.7,0
		c4.8,0,9.4,1.4,13.3,4c3.8,2.6,6.7,6.1,8.4,10.3v0.1h-0.1C603.6,2601.8,601.1,2602.4,598.5,2602.4z M583.2,2586.5
		c0,0.5-0.1,0.9-0.1,1.3c0,8,6.9,14.5,15.4,14.5c2.5,0,5-0.6,7.2-1.7c-3.4-8.4-12-14.1-21.5-14.1c-0.2,0-0.5,0-0.7,0
		C583.4,2586.5,583.3,2586.5,583.2,2586.5z"/>
	<g class="st5">
		<path class="st6" d="M562.4,2602.1c-0.7,2.1-1,4.3-1,6.5c0,12.1,10.3,21.9,23.1,21.9c9.6,0,17.8-5.5,21.3-13.4
			c-4.4,5.4-11.3,10.9-20.2,10.5c-15.4-0.8-23.2-11.9-23.2-24.6C562.4,2602.6,562.4,2602.3,562.4,2602.1z"/>
	</g>
	<path class="st2" d="M584.1,2630.8c-13.1,0-23.7-10.1-23.7-22.6c0-12.4,10.7-22.6,23.7-22.6s23.7,10.1,23.7,22.6
		C607.9,2620.7,597.2,2630.8,584.1,2630.8z M584.1,2587c-12.4,0-22.5,9.5-22.5,21.3c0,11.7,10.1,21.3,22.5,21.3s22.5-9.5,22.5-21.3
		S596.5,2587,584.1,2587L584.1,2587z"/>
	<path class="st10" d="M569.2,2606.2c1.6-8,10.5-13.9,19.5-12s16.5,9.8,14.7,18.5c-1.8,9.2-11.7,13.6-20.7,11.7
		C573.7,2622.6,567.6,2614.2,569.2,2606.2z"/>
	<g class="st5">
		<path class="st9" d="M570.7,2601.9c-0.8,1.3-1.3,2.8-1.6,4.3c-1.6,8,4.5,16.4,13.5,18.2c8.4,1.8,17.7-2,20.3-10.1
			c-3.6,6.2-11.7,9-19.1,7.4c-9-1.9-15.1-10.2-13.5-18.2C570.4,2603,570.5,2602.5,570.7,2601.9z"/>
		<path class="st2" d="M586.8,2624.9c-1.4,0-2.8-0.1-4.2-0.4c-4.4-0.9-8.2-3.3-10.8-6.9c-2.6-3.5-3.6-7.6-2.8-11.5
			c0.3-1.5,0.9-3,1.6-4.3l0.4-0.7l-0.3,0.8c-0.2,0.5-0.3,1.1-0.4,1.6c-1.6,8,4.6,16.3,13.4,18.1c7.8,1.6,15.6-1.4,19-7.4l0.4-0.7
			l-0.3,0.8c-1.2,3.8-4.1,6.9-8,8.8C592.4,2624.3,589.6,2624.9,586.8,2624.9z M570.4,2602.7c-0.6,1.1-1,2.3-1.2,3.5
			c-1.6,8,4.6,16.3,13.4,18.1c1.4,0.3,2.8,0.4,4.2,0.4c7.1,0,13.3-3.7,15.7-9.7c-3.7,5.6-11.3,8.3-18.8,6.8
			c-4.4-0.9-8.2-3.3-10.8-6.9c-2.6-3.5-3.6-7.6-2.8-11.5C570.3,2603.3,570.3,2603,570.4,2602.7z"/>
	</g>
	<path class="st2" d="M586.8,2625.5c-1.4,0-2.8-0.1-4.2-0.4c-4.5-0.9-8.4-3.4-11.1-7.1c-2.7-3.6-3.7-7.9-2.9-11.9l0,0
		c0.8-3.9,3.3-7.5,6.9-9.9c3.9-2.6,8.8-3.6,13.4-2.6c4.6,1,8.9,3.5,11.8,6.9c3.1,3.7,4.3,8.1,3.5,12.4c-0.8,4-3,7.3-6.5,9.6
		C594.5,2624.4,590.7,2625.5,586.8,2625.5z M569.8,2606.3c-1.5,7.7,4.4,15.7,13,17.5c4.9,1,10.1,0.1,14-2.5c3.2-2.1,5.3-5.1,6-8.8
		c1.7-8.8-6-16.1-14.2-17.8c-4.2-0.9-8.8,0-12.4,2.4C572.9,2599.5,570.5,2602.8,569.8,2606.3L569.8,2606.3z"/>
	<path class="st0" d="M559.1,2599.5c1.3-3.7,4.5-6,7.1-5.1c2.7,0.9,3.8,4.7,2.5,8.4s-4.5,6-7.1,5.1S557.8,2603.2,559.1,2599.5z"/>
	<g class="st7">
		<path class="st8" d="M565.2,2594.4c-2.4-0.1-5,2-6.1,5.3c-0.2,0.5-0.3,0.9-0.4,1.4c1.3-3.6,4.4-5.8,7-4.9c2.3,0.8,3.5,3.8,2.9,7
			c0-0.1,0.1-0.1,0.1-0.2c1.3-3.7,0.2-7.5-2.5-8.4C565.9,2594.5,565.5,2594.4,565.2,2594.4z"/>
	</g>
	<path class="st10" d="M559.2,2599.2c1-2.4,2.7-3.7,3.9-3c1.2,0.8,1.4,3.4,0.5,5.8s-2.7,3.7-3.9,3
		C558.4,2604.1,558.2,2601.6,559.2,2599.2z"/>
	<g class="st5">
		<path class="st6" d="M559.5,2598.3c-0.2,0.4-0.4,0.8-0.5,1.2c-1.3,3.7-0.2,7.5,2.5,8.4c2.6,0.9,5.8-1.4,7.1-5.1
			c0.2-0.6,0.3-1.1,0.4-1.7c-1.5,3-4.2,4.7-6.6,3.9C560.1,2604.2,559,2601.4,559.5,2598.3z"/>
	</g>
	<path class="st2" d="M562.8,2608.7c-0.5,0-0.9-0.1-1.4-0.2c-3-1-4.3-5.2-2.9-9.2l0,0c0.7-1.9,1.8-3.6,3.3-4.6
		c1.5-1.1,3.2-1.4,4.7-0.9s2.6,1.8,3.1,3.6c0.5,1.7,0.4,3.7-0.2,5.6C568.1,2606.4,565.4,2608.7,562.8,2608.7z M559.7,2599.7
		c-1.2,3.4-0.2,6.8,2.1,7.6c0.3,0.1,0.7,0.2,1,0.2c2.1,0,4.3-2,5.3-4.9c0.6-1.7,0.7-3.4,0.2-4.9c-0.4-1.4-1.2-2.3-2.3-2.7
		s-2.3-0.1-3.5,0.7C561.3,2596.6,560.3,2598,559.7,2599.7L559.7,2599.7z"/>
	<path class="st0" d="M584.2,2586.3c-0.4,0-0.7,0-1.1,0.1c0,0.5-0.1,0.9-0.1,1.4c0,5.1,2.8,9.6,7.1,12.2c2.4,1.5,5.3,2.3,8.4,2.3
		c2.7,0,5.2-0.6,7.3-1.7C602.5,2592.3,594.1,2586.3,584.2,2586.3z"/>
	<g class="st7">
		<path class="st8" d="M584.2,2586.3c-0.4,0-0.7,0-1.1,0.1c0,0.4-0.1,0.9-0.1,1.4c0,0.1,0,0.3,0,0.4c2.6,0,5.4,0.4,8.3,1.3
			c1.1,0.4,2.1,0.8,3.1,1.3c-0.2,0.4,0.6,1.4,1.8,2.2c1.2,0.7,2.3,1.1,2.7,0.8c2.6,2.3,4.5,4.9,5.7,7.3c0.4-0.2,0.8-0.3,1.1-0.5
			c-0.2-0.5-0.4-1-0.7-1.5l0,0l0,0c-0.7-1.5-1.6-2.9-2.7-4.2c-0.3-0.4-0.7-0.8-1-1.2c-0.1-0.1-0.1-0.1-0.2-0.2
			c-0.3-0.4-0.7-0.7-1.1-1.1l0,0c0,0,0,0-0.1-0.1c-0.7-0.6-1.4-1.2-2.1-1.7c-0.2-0.1-0.4-0.3-0.6-0.4c-0.3-0.2-0.6-0.4-0.9-0.5
			c-0.3-0.2-0.5-0.3-0.8-0.5s-0.6-0.3-1-0.5c-0.3-0.1-0.6-0.3-0.9-0.4c-0.3-0.1-0.6-0.3-0.9-0.4c-0.6-0.2-1.2-0.4-1.8-0.6
			c-0.2-0.1-0.4-0.1-0.7-0.2c-0.5-0.1-0.9-0.2-1.4-0.3c-0.3-0.1-0.5-0.1-0.8-0.1c-0.4-0.1-0.9-0.1-1.3-0.2c-0.2,0-0.5-0.1-0.7-0.1
			C585.6,2586.4,584.9,2586.3,584.2,2586.3z"/>
	</g>
	<path class="st2" d="M560.4,2605.8c-0.4,0-0.8-0.1-1.1-0.3c-1.5-0.9-1.8-3.8-0.7-6.5l0,0c0.7-1.8,1.8-3.1,3-3.5
		c0.7-0.2,1.3-0.1,1.8,0.2c1.5,0.9,1.8,3.8,0.7,6.5c-0.7,1.8-1.8,3.1-3,3.5C560.9,2605.7,560.6,2605.8,560.4,2605.8z M559.8,2599.4
		c-0.9,2.3-0.6,4.5,0.2,5c0.2,0.1,0.5,0.2,0.7,0.1c0.8-0.3,1.7-1.3,2.2-2.7c0.9-2.3,0.6-4.5-0.2-5c-0.2-0.1-0.5-0.2-0.7-0.1
		C561.2,2596.9,560.3,2598,559.8,2599.4L559.8,2599.4z"/>
	<path class="st2" d="M598.5,2602.9c-8.9,0-16.1-6.8-16.1-15.2c0-0.5,0-1,0.1-1.4c0-0.3,0.3-0.6,0.6-0.6c0.1,0,0.2,0,0.4,0
		s0.5,0,0.7,0c4.9,0,9.6,1.4,13.6,4.1c3.9,2.6,6.9,6.3,8.6,10.5c0.1,0.3,0,0.7-0.3,0.8C603.8,2602.3,601.1,2602.9,598.5,2602.9z
		 M583.7,2587c0,0.3,0,0.5,0,0.8c0,7.7,6.6,13.9,14.8,13.9c2.2,0,4.5-0.5,6.5-1.4c-3.4-8-11.7-13.3-20.8-13.3
		C584,2587,583.9,2587,583.7,2587z"/>
	<path class="st6" d="M582.3,2604.5c0.5-1.5,1.7-2.5,2.8-2.2s1.5,1.9,1,3.4s-1.7,2.5-2.8,2.2
		C582.2,2607.6,581.8,2606.1,582.3,2604.5z"/>
	<path class="st11" d="M584,2604.3c0.2-0.5,0.6-0.8,0.9-0.7s0.5,0.6,0.3,1.1s-0.6,0.8-0.9,0.7S583.9,2604.8,584,2604.3z"/>
	<path class="st6" d="M584.5,2609.8c1.5-0.7,7.8,1.6,8.3,3.4c0.5,1.8-3,5.9-7.5,4.2C581.3,2615.9,582.4,2610.8,584.5,2609.8z"/>
	<path class="st12" d="M583.5,2611.7c-0.2,0-0.4,0-0.6,0.1c-0.7,1.9-0.4,4.6,2.3,5.6c1.1,0.4,2.1,0.5,3.1,0.3c0-0.2,0.1-0.4,0.1-0.6
		C588.4,2614.2,586.2,2611.7,583.5,2611.7z"/>
	<path class="st2" d="M587.4,2617.9c-0.7,0-1.5-0.1-2.2-0.4c-2.7-1-3.1-3.7-2.4-5.7l0,0h0.1h0.1c0.2,0,0.3,0,0.5,0
		c2.7,0,5,2.5,5,5.5c0,0.1,0,0.3,0,0.4c0,0.1,0,0.1,0,0.2v0.1h-0.1C588.1,2617.9,587.7,2617.9,587.4,2617.9z M583,2611.9
		c-0.7,2-0.3,4.5,2.3,5.5c1,0.4,2,0.5,3,0.3v-0.1c0-0.1,0-0.3,0-0.4c0-2.9-2.2-5.3-4.8-5.3C583.4,2611.8,583.2,2611.8,583,2611.9
		L583,2611.9z"/>
	<path class="st2" d="M587.4,2618.5c-0.8,0-1.6-0.2-2.4-0.4c-1.9-0.7-3-2.3-3.1-4.2s0.9-3.9,2.2-4.6l0,0c1.3-0.7,4.4,0.4,5.9,1.1
		c1.3,0.6,3,1.6,3.3,2.8c0.3,1.1-0.4,2.6-1.7,3.7C590.5,2617.9,589,2618.5,587.4,2618.5z M584.8,2610.4c-0.9,0.4-1.6,1.9-1.5,3.3
		c0,0.8,0.4,2.4,2.3,3.1c2.7,1,4.6-0.3,5.4-1c1-0.9,1.4-1.9,1.3-2.5c-0.1-0.4-1-1.1-2.6-1.9C587.4,2610.5,585.3,2610.1,584.8,2610.4
		L584.8,2610.4z"/>
	<path class="st2" d="M577.9,2613.3L577.9,2613.3c-0.2,0-4.5-0.1-6.4-1c-3.7-1.8-6.4-8.6-6.5-8.9c-0.1-0.3,0-0.7,0.4-0.8
		c0.3-0.1,0.7,0,0.8,0.4c0,0.1,2.6,6.6,5.8,8.2c1.7,0.8,5.9,0.9,5.9,0.9c0.4,0,0.6,0.3,0.6,0.7
		C578.6,2613.1,578.3,2613.3,577.9,2613.3L577.9,2613.3z"/>
	<path class="st13" d="M578.1,2610.7l3.1,0.4c1.1,0.1,2,1.2,1.8,2.3l0,0l0,0c-0.1,1.1-1.2,2-2.3,1.8l-3.1-0.4
		c-1.1-0.1-2-1.2-1.8-2.3l0,0C575.9,2611.4,576.9,2610.5,578.1,2610.7L578.1,2610.7z"/>
	<path class="st2" d="M581,2615.3c-0.1,0-0.2,0-0.3,0l-3.1-0.4c-1.2-0.1-2-1.2-1.9-2.4s1.2-2,2.4-1.9l3.1,0.4c1.2,0.1,2,1.2,1.9,2.4
		C583,2614.4,582.1,2615.3,581,2615.3L581,2615.3z M577.8,2610.7c-1.1,0-2,0.9-2,2c0,1,0.8,1.9,1.8,2l3.1,0.4
		c1.1,0.1,2.1-0.7,2.2-1.8c0.1-1.1-0.7-2.1-1.8-2.2l-3.1-0.4C578,2610.7,577.9,2610.7,577.8,2610.7L577.8,2610.7z"/>
	<path class="st14" d="M578.1,2610.7l3.1,0.4c1.1,0.1,2,1.2,1.8,2.3l0,0l0,0c-0.1,1.1-1.2,2-2.3,1.8l-3.1-0.4
		c-1.1-0.1-2-1.2-1.8-2.3l0,0C575.9,2611.4,576.9,2610.5,578.1,2610.7L578.1,2610.7z"/>
	<g class="st7">
		<path class="st8" d="M577.7,2610.7c-1,0.1-1.8,0.9-1.9,1.8c0,0.1,0,0.1,0,0.2c0.4-0.6,1.1-0.9,1.9-0.9l3.1,0.4
			c1.1,0.1,1.9,1.1,1.8,2.1c0.2-0.3,0.4-0.6,0.4-1c0.1-1.1-0.7-2.2-1.8-2.3l0,0l-3.1-0.4C578,2610.6,577.9,2610.6,577.7,2610.7z"/>
	</g>
	<g class="st5">
		<path class="st6" d="M576.2,2611.4c-0.3,0.3-0.5,0.7-0.5,1.1c-0.1,1.1,0.7,2.2,1.8,2.3l3.1,0.4c1.1,0.1,2.2-0.7,2.3-1.8
			c0-0.3,0-0.7-0.1-1c-0.3,0.9-1.1,1.5-2,1.3l-2.9-0.3C576.9,2613.3,576.2,2612.4,576.2,2611.4z"/>
	</g>
	<path class="st2" d="M581,2615.8c-0.1,0-0.2,0-0.3,0l-3.1-0.4c-1.5-0.2-2.6-1.5-2.4-3s1.5-2.6,3-2.4l0,0l3.1,0.4
		c1.5,0.2,2.6,1.5,2.4,3C583.5,2614.8,582.4,2615.8,581,2615.8L581,2615.8z M577.8,2611.3c-0.8,0-1.4,0.6-1.4,1.4
		c0,0.7,0.6,1.3,1.3,1.4l3.1,0.4c0.8,0.1,1.5-0.5,1.6-1.3s-0.5-1.5-1.3-1.6l-3.1-0.4C577.9,2611.3,577.9,2611.3,577.8,2611.3
		L577.8,2611.3z"/>
	<g class="st5">
		<path class="st6" d="M611.8,2627.1c-0.4,0.3-12.7,10.8-22.9,10.3l-2.5,3.6C598.7,2640.6,608.7,2633.3,611.8,2627.1z"/>
	</g>
	<path class="st3" d="M556.1,2636.6c0,0-3.9-0.4-5.4,3.4c-1.5,3.7,1.2,6,1.2,6s-3.1,8.3,1.6,10.5s16.6-12.4,10.8-17.6"/>
	<g class="st5">
		<path class="st9" d="M565.3,2640c0.4,2.5-5.6,13.4-10.1,12.8c-5.1-0.7-1-10.7-1-10.7l-2.2,4.1c-0.1,0.3-3,8.2,1.7,10.4
			C558.1,2658.6,568.7,2645.8,565.3,2640z"/>
		<path class="st2" d="M554.6,2656.8c-0.4,0-0.8-0.1-1.1-0.2c-4.7-2.2-1.8-10.2-1.7-10.5l2.2-4.1l0.2,0.1c0,0.1-2.6,6.5-1,9.3
			c0.4,0.7,1.1,1.1,2,1.3c1.3,0.2,2.8-0.6,4.4-2.2c3.1-3.1,5.8-8.7,5.6-10.4l-0.1-0.4l0.2,0.4c2,3.4-0.7,9-4.1,12.8
			C558.9,2655.3,556.5,2656.8,554.6,2656.8z M553.6,2643.1l-1.6,3c-0.1,0.3-3,8.1,1.6,10.3c0.3,0.1,0.7,0.2,1,0.2
			c1.7,0,4.1-1.5,6.5-4c3.3-3.7,5.8-9,4.2-12.3c-0.1,2.1-2.8,7.3-5.7,10.2c-1.7,1.7-3.2,2.4-4.6,2.3c-0.9-0.1-1.6-0.6-2.1-1.3
			C551.8,2649.3,552.9,2645.1,553.6,2643.1L553.6,2643.1z"/>
	</g>
	<g class="st5">
		<path class="st6" d="M566.3,2642.1c-0.7,2.9-0.7,4-2.6,7.1c-3.4,5.6-8.5,3.9-9.9,1.5l0.3,5.5c0,0-1.6,1.6-3,3.6c0.1,0,0.2,0,0.3,0
			C564.2,2660.9,566.3,2642.1,566.3,2642.1z"/>
	</g>
	<g class="st5">
		<path class="st6" d="M551.6,2638.7c0,0-0.9,3.2,2.7,3.1c0,0-2.5,3.5-2.9,5.6l-0.1-2.1C551.3,2645.3,549,2642.2,551.6,2638.7z"/>
	</g>
	<path class="st2" d="M556,2637.3c0,0-0.1,0-0.2,0s-0.1,0-0.2,0c-0.1,0-0.2,0-0.4,0s-0.5,0.1-0.7,0.1c-0.5,0.1-0.9,0.3-1.4,0.5
		c-0.8,0.5-1.5,1.3-1.8,2.2c-0.4,0.9-0.5,1.9-0.4,2.9c0.1,0.5,0.3,0.9,0.5,1.4c0.1,0.2,0.2,0.4,0.4,0.6c0.1,0.1,0.2,0.2,0.2,0.3
		l0.1,0.1c0,0,0,0,0.1,0.1l0,0l0,0c0.2,0.2,0.3,0.5,0.2,0.7c-0.1,0.3-0.2,0.7-0.3,1s-0.2,0.7-0.3,1.1c-0.2,0.7-0.3,1.4-0.3,2.1
		c-0.1,0.7-0.1,1.4,0,2.1c0.1,0.7,0.3,1.3,0.6,1.9c0.3,0.6,0.8,1,1.3,1.3l0.2,0.1h0.1h0.1c0.1,0,0.1,0,0.2,0.1c0.1,0,0.1,0,0.2,0
		c0.3,0,0.6,0,0.9-0.1c0.6-0.1,1.3-0.4,1.9-0.8c0.6-0.4,1.2-0.8,1.7-1.3c1.1-0.9,2.1-2,3-3.2s1.7-2.4,2.3-3.7c0.3-0.7,0.6-1.3,0.8-2
		c0.1-0.3,0.2-0.7,0.3-1s0.1-0.7,0.2-1c0.1-0.7,0-1.4-0.2-2.1c-0.2-0.7-0.5-1.3-1-1.8l0,0c-0.1-0.1-0.1-0.2,0-0.3s0.2-0.1,0.3,0
		c0.6,0.5,1.1,1.1,1.5,1.9c0.2,0.4,0.3,0.8,0.3,1.2c0.1,0.4,0.1,0.8,0.1,1.2c0,0.8-0.1,1.6-0.3,2.4c-0.2,0.8-0.5,1.5-0.8,2.2
		c-0.6,1.4-1.4,2.8-2.4,4c-0.9,1.2-2,2.4-3.2,3.4c-0.6,0.5-1.2,1-1.9,1.4s-1.4,0.8-2.3,0.9c-0.4,0.1-0.9,0.1-1.3,0.1
		c-0.1,0-0.2,0-0.3-0.1c-0.1,0-0.2-0.1-0.3-0.1l-0.2-0.1c-0.1,0-0.1,0-0.2-0.1l-0.3-0.2c-0.8-0.4-1.4-1.1-1.8-1.8
		c-0.4-0.7-0.6-1.6-0.8-2.4c-0.1-0.8-0.1-1.6,0-2.4c0.1-0.8,0.2-1.6,0.4-2.3c0.1-0.4,0.2-0.8,0.3-1.1c0.1-0.4,0.2-0.7,0.4-1.1
		l0.2,0.7l-0.1-0.1l-0.1-0.1c-0.1-0.1-0.1-0.1-0.2-0.2c-0.1-0.1-0.2-0.2-0.3-0.4c-0.2-0.2-0.4-0.5-0.5-0.8c-0.3-0.5-0.5-1.1-0.6-1.7
		c0-0.2,0-0.3-0.1-0.5c0-0.1,0-0.2,0-0.2v-0.2c0-0.2,0-0.3,0-0.5v-0.5c0-0.2,0.1-0.3,0.1-0.5s0.1-0.3,0.1-0.4l0.1-0.4
		c0-0.1,0.1-0.3,0.2-0.4c0.2-0.6,0.5-1.1,1-1.6c0.4-0.5,0.9-0.9,1.4-1.2s1.1-0.5,1.7-0.7c0.3-0.1,0.6-0.1,0.9-0.1c0.2,0,0.3,0,0.5,0
		c0.1,0,0.2,0,0.2,0c0.1,0,0.1,0,0.3,0c0.4,0,0.6,0.3,0.6,0.7C556.7,2637,556.4,2637.3,556,2637.3L556,2637.3z"/>
	<path class="st0" d="M554,2643.8c-0.7,0-1.2,0.1-1.2,0.1c-0.6,0.4-1.1,0.9-1.5,1.4c0.2,0.2,0.3,0.4,0.5,0.6c0,0-3.1,8.3,1.6,10.5
		c2.7,1.2,7.6-2.8,10.3-7.5C560.9,2644.2,556.2,2643.8,554,2643.8z"/>
	<g class="st5">
		<path class="st6" d="M553.5,2644c-0.1,0-0.3,0-0.4,0l-1.2,2.2c-0.1,0.2-0.8,2.2-1,4.5s0.3,4.8,2.6,5.9c0.1,0.1,0.3,0.1,0.4,0.1
			c0,0,0,0,0.1,0l0,0c0.1,0,0.2,0,0.2,0c0.1,0,0.2,0,0.3,0c0.3,0,0.6,0,0.8-0.1c0.1,0,0.2,0,0.3-0.1c0.1,0,0.3-0.1,0.4-0.1
			c0.4-0.1,0.7-0.3,1-0.5c0.1,0,0.1-0.1,0.2-0.1c0.5-0.3,0.9-0.6,1.3-0.9c1.9-1.5,3.8-3.7,5.2-6c-0.5-0.8-1-1.4-1.5-1.9
			c-2,3.2-4.8,6-7.2,5.7C551.4,2652.3,552.6,2646.9,553.5,2644z"/>
	</g>
	<g class="st7">
		<path class="st8" d="M552.7,2644.5c0,0,5.9,0.1,8.7,3.2c1.1,1.2,1.3,2.5,0.8,3.7l1.7-2.2C563.8,2649.2,559.4,2642.1,552.7,2644.5z
			"/>
	</g>
	<path class="st2" d="M551.3,2645.7c0.1-0.3,0.2-0.5,0.3-0.8c0.1-0.1,0.1-0.2,0.2-0.4c0.1-0.1,0.1-0.2,0.2-0.4
		c0.3-0.5,0.6-0.9,0.9-1.3c0.3-0.4,0.7-0.8,1.1-1.2c0.4-0.4,0.8-0.7,1.3-1h0.1v0.1l0,0c-0.3,0.4-0.6,0.9-0.8,1.3
		c-0.2,0.4-0.5,0.9-0.7,1.3c-0.2,0.5-0.4,0.9-0.6,1.4c-0.2,0.4-0.4,0.9-0.7,1.3l0,0c-0.2,0.3-0.6,0.4-0.9,0.2
		C551.4,2646.3,551.3,2646,551.3,2645.7L551.3,2645.7z"/>
	<path class="st2" d="M554.6,2657.3c-0.5,0-0.9-0.1-1.3-0.3c-4.7-2.2-2.7-9.2-2.1-10.9c-0.1-0.1-0.2-0.2-0.3-0.4
		c-0.2-0.2-0.2-0.6,0-0.8c0.5-0.6,1-1.2,1.6-1.5c0.1,0,0.1-0.1,0.2-0.1c0,0,0.5-0.1,1.3-0.1c2.1-0.1,7.3,0.3,10.4,5.4
		c0.1,0.2,0.1,0.5,0,0.7C561.9,2653.5,557.7,2657.3,554.6,2657.3z M552.2,2645.4c0.1,0.1,0.1,0.1,0.1,0.1c0.2,0.2,0.3,0.5,0.2,0.7
		c0,0.1-2.9,7.8,1.3,9.7c2.1,1,6.5-2.4,9.3-7c-2.7-4.1-6.8-4.5-9.1-4.4l0,0c-0.3,0-0.6,0-1,0.1
		C552.8,2644.8,552.5,2645.1,552.2,2645.4z M554,2643.8L554,2643.8z"/>
	<path class="st10" d="M562.9,2633.1c0,0,2.8-2.3,0.5-5.5c-2.8-3.9-11.5-1.2-11.4,4.5c0,5.7,6.2,5.1,6.8,5.1
		C560,2637.1,562.8,2636.2,562.9,2633.1z"/>
	<path class="st2" d="M562.3,2633v-0.4c0-0.1,0-0.3-0.1-0.4c0-0.2-0.1-0.5-0.2-0.7c-0.2-0.5-0.4-0.9-0.7-1.1
		c-0.2-0.2-0.4-0.3-0.6-0.4c-0.2-0.1-0.5-0.2-0.8-0.2c-0.5-0.1-1.1-0.1-1.7,0l0,0c-0.1,0-0.1,0-0.1-0.1c0,0,0-0.1,0.1-0.1
		c0.5-0.3,1.1-0.5,1.8-0.6c0.2,0,0.3,0,0.5,0s0.3,0,0.5,0c0.4,0.1,0.7,0.2,1,0.3c0.3,0.2,0.6,0.4,0.9,0.7c0.2,0.3,0.4,0.6,0.6,0.9
		c0.1,0.3,0.2,0.7,0.3,1c0,0.2,0,0.3,0,0.5c0,0.1,0,0.2,0,0.3s0,0.2,0,0.3c0,0.4-0.4,0.6-0.7,0.5
		C562.6,2633.6,562.3,2633.4,562.3,2633L562.3,2633z"/>
	<path class="st2" d="M558,2637.7c-1.3,0-3.6-0.2-5.2-1.7c-1-1-1.5-2.3-1.5-4.1c0-2.9,2.1-5.5,5.4-6.5c3-1,5.8-0.3,7.3,1.7
		c2,2.7,0.7,5.1-0.4,6.2c-0.1,1.2-0.6,2.2-1.4,3c-1,1-2.5,1.4-3.4,1.3c0,0-0.1,0-0.2,0C558.4,2637.7,558.2,2637.7,558,2637.7z
		 M559.3,2626.3c-0.7,0-1.5,0.1-2.3,0.4c-2.1,0.7-4.5,2.5-4.5,5.3c0,1.4,0.4,2.4,1.1,3.1c1.4,1.4,3.9,1.3,4.8,1.3c0.1,0,0.2,0,0.3,0
		c0.5,0,1.7-0.2,2.5-1c0.6-0.6,1-1.4,1-2.4c0-0.2,0.1-0.4,0.2-0.5c0.2-0.2,2.2-2.1,0.4-4.7C562.1,2626.9,560.8,2626.3,559.3,2626.3z
		"/>
	<g class="st5">
		<path class="st6" d="M563.5,2627.6c0,0,0.4,2.9-1.9,2.1c0,0,0,5.2-4.2,5.1c-3.6,0-5-1.9-5.4-2.5c0.3,5.3,6.2,4.7,6.8,4.7
			c1.2,0,4.1-0.9,4.2-4C562.9,2633,565.6,2630.7,563.5,2627.6L563.5,2627.6z"/>
	</g>
	<g class="st5">
		<path class="st9" d="M583.1,2586.3c0,0,3.2,18.8,22.3,13l0.3,1.2c0,0-3,2.1-7.8,1.8C591.4,2601.8,582.7,2597.6,583.1,2586.3z"/>
		<path class="st2" d="M599,2602.4c-0.4,0-0.7,0-1.1,0c-3.8-0.3-7.4-1.7-10-4c-3.4-2.9-5-7-4.8-12.1v-0.8l0.1,0.8
			c0,0.1,1.5,8.1,7.7,12c3.9,2.4,8.7,2.7,14.5,1h0.1l0.4,1.3l0,0C605.7,2600.6,603.1,2602.4,599,2602.4z M583.2,2587.1
			c0,10.3,7.8,14.6,14.7,15.1c4.4,0.3,7.3-1.5,7.7-1.7l-0.3-1c-5.8,1.7-10.6,1.4-14.5-1C585.6,2595.2,583.7,2589.1,583.2,2587.1z"/>
	</g>
	<path class="st6" d="M594.3,2608.7c0.5-1.5,1.7-2.5,2.8-2.2c1,0.3,1.5,1.9,1,3.4s-1.7,2.5-2.8,2.2
		C594.3,2611.7,593.8,2610.2,594.3,2608.7z"/>
	<path class="st11" d="M596.1,2608.5c0.2-0.5,0.6-0.8,0.9-0.7s0.5,0.6,0.3,1.1s-0.6,0.8-0.9,0.7
		C596.1,2609.5,595.9,2609,596.1,2608.5z"/>
	<path class="st2" d="M605.7,2633.5c-2.1,0-3.8-0.6-5.2-1.8c-2.7-2.3-2.8-6-2.8-6.2c0-0.4,0.3-0.7,0.6-0.7c0.4,0,0.6,0.3,0.7,0.6
		c0,0,0.2,3.3,2.4,5.2c1.3,1.2,3.2,1.6,5.5,1.4c0.4,0,0.7,0.2,0.7,0.6c0,0.3-0.2,0.7-0.6,0.7
		C606.5,2633.5,606.1,2633.5,605.7,2633.5z"/>
	<path class="st2" d="M557.7,2668.9l-10.5,10.6l9.5-11.5c0.2-0.3,0.6-0.3,0.9-0.1C557.9,2668.2,558,2668.6,557.7,2668.9
		L557.7,2668.9z"/>
	<path class="st2" d="M553.3,2656.5l-20,23.1l19.1-23.9c0.2-0.3,0.6-0.3,0.9-0.1S553.5,2656.2,553.3,2656.5L553.3,2656.5
		L553.3,2656.5z"/>
	<path class="st2" d="M550.9,2643.7l-16.4,16.7l15.5-17.5c0.2-0.3,0.7-0.3,0.9,0C551.1,2643,551.1,2643.4,550.9,2643.7L550.9,2643.7
		z"/>
	<path class="st2" d="M596.7,2639.6l-16.2,18.6l15.2-19.4c0.2-0.3,0.6-0.3,0.9-0.1C596.9,2638.9,597,2639.3,596.7,2639.6
		C596.8,2639.6,596.7,2639.6,596.7,2639.6z"/>
	<path class="st2" d="M591.8,2640.6l-7.7,8.1l6.7-8.9c0.2-0.3,0.6-0.3,0.9-0.1S592.1,2640.3,591.8,2640.6L591.8,2640.6z"/>
	<path class="st2" d="M551.7,2654l-10.4,11.1l9.4-11.9c0.2-0.3,0.6-0.3,0.9-0.1C551.9,2653.3,551.9,2653.7,551.7,2654L551.7,2654z"
		/>
	<path class="st2" d="M553.7,2669.8l-3.9,3.6l2.9-4.5c0.2-0.3,0.6-0.4,0.9-0.2c0.3,0.2,0.4,0.6,0.2,0.9
		C553.8,2669.7,553.8,2669.7,553.7,2669.8z"/>
	<path class="st2" d="M552.4,2638.6l-8.5,7.7l7.5-8.6c0.2-0.3,0.6-0.3,0.9-0.1C552.6,2637.8,552.7,2638.2,552.4,2638.6L552.4,2638.6
		C552.4,2638.5,552.4,2638.6,552.4,2638.6z"/>
</g>
</svg>
