<svg xmlns="http://www.w3.org/2000/svg" viewBox="0 0 81 95"><defs><style>.cls-1{fill:#ffd200;}.cls-1,.cls-10,.cls-11,.cls-12,.cls-13,.cls-14,.cls-15,.cls-2,.cls-4,.cls-7,.cls-9{fill-rule:evenodd;}.cls-2{fill:#ea5656;}.cls-3,.cls-7{fill:#0f227a;}.cls-4{fill:#afdbf6;}.cls-11,.cls-5{fill:#fff;}.cls-6{opacity:0.2;}.cls-8{opacity:0.6;}.cls-9{fill:#fdfdfd;}.cls-10{fill:#1d386a;}.cls-12{fill:#fdfefd;}.cls-13{fill:#d7557a;}.cls-14{fill:#ecb35b;}.cls-15{fill:#fed200;}</style></defs><g id="Слой_2" data-name="Слой 2"><g id="Слой_1-2" data-name="Слой 1"><g id="Слой_2-2" data-name="Слой 2"><g id="Слой_1-2-2" data-name="Слой 1-2"><path class="cls-1" d="M6.25,51.49a32.37,32.37,0,1,1,0,.06Z"/><path class="cls-2" d="M46.75,37.56c5.85,1.91,13.2,3,17.74.7s11.48-7.87,14.91-3c4.13,5.86-8.46,19.79-25.9,20.5,0,0-27.91,35.43-36.47,27.76-4.54-4,3.63-11.81,3.63-11.81L19.55,52.8s-4.64-.3-4.74-4.95C14.91,41.7,22.87,30,46.75,37.56Z"/><path class="cls-3" d="M20.15,84.7A4.68,4.68,0,0,1,17,83.59a3.9,3.9,0,0,1-1.41-3c0-3.83,4.53-8.38,4.94-8.78L19.45,53c-.61-.1-4.64-.7-4.74-5a12.1,12.1,0,0,1,5.34-9.38c4.13-3,12.09-5.66,26.6-1.12h0c3.53,1.12,12.3,3.44,17.74.81.9-.4,1.81-1,2.82-1.51,4.13-2.42,9.37-5.45,12.19-1.42,1.11,1.62,1.11,3.84-.2,6.37-1.61,3.33-5,6.66-9.37,9.28a34.34,34.34,0,0,1-16.43,5c-.4.5-5.74,7.27-12.29,14C32,79.35,25.09,84.4,20.56,84.8,20.56,84.7,20.35,84.7,20.15,84.7Zm12.5-49.57c-5.95,0-9.88,1.72-12.4,3.54A12.12,12.12,0,0,0,15,48c0,4.45,4.54,4.85,4.64,4.85h.1v.1l1.11,18.88h0s-5,4.74-4.94,8.68a4,4,0,0,0,1.31,2.93,4.28,4.28,0,0,0,3.53,1C31.54,83.49,53.3,55.83,53.5,55.63h0a34.71,34.71,0,0,0,16.43-5c4.33-2.62,7.66-6,9.27-9.19,1.21-2.42,1.21-4.64.2-6.16-2.82-3.83-7.86-.9-12,1.42a25.46,25.46,0,0,1-2.82,1.51c-5.44,2.73-14.31.41-17.84-.7h0A49,49,0,0,0,32.65,35.13Z"/><path class="cls-3" d="M20.15,85.31a4.92,4.92,0,0,1-3.42-1.21,4.67,4.67,0,0,1-1.62-3.54c0-3.83,3.93-8.07,4.94-9.08L19,53.41a5.45,5.45,0,0,1-4.73-5.56A12.64,12.64,0,0,1,19.85,38c4.23-3.13,12.39-5.86,27.1-1.11,7.16,2.32,13.71,2.62,17.34.81.8-.41,1.81-1,2.82-1.52a31.73,31.73,0,0,1,6.75-3.23c2.72-.7,4.83,0,6.25,1.92,1.2,1.72,1.2,4.24-.11,6.87-1.61,3.43-5.13,6.86-9.57,9.59a35.73,35.73,0,0,1-16.42,5c-2.32,2.93-22.47,28-33.15,28.88A2.14,2.14,0,0,1,20.15,85.31Zm12.5-49.57c-5.85,0-9.58,1.61-12.09,3.43a11.57,11.57,0,0,0-5,8.78c0,3.94,3.93,4.24,4.13,4.24a.66.66,0,0,1,.6.61l1.11,18.88a.7.7,0,0,1-.2.5s-4.84,4.65-4.74,8.28A3.23,3.23,0,0,0,17.63,83a4,4,0,0,0,3.13.9C31.24,83,52.9,55.53,53.2,55.32a.85.85,0,0,1,.51-.2c11.78-.5,22.06-7.37,25.19-13.83,1.1-2.22,1.21-4.24.2-5.55-2.52-3.43-7.16-.81-11.29,1.61-1,.61-2,1.11-2.82,1.62-5.64,2.83-14.61.4-18.24-.71h0A47.32,47.32,0,0,0,32.65,35.74Z"/><path class="cls-2" d="M23,51.59a5.56,5.56,0,0,0-4.23,9.49s-3.12,8.38,1.61,10.6S37.08,59.16,31.24,53.91"/><path class="cls-3" d="M21.56,72a3.87,3.87,0,0,1-1.11-.2c-4.63-2.12-2-9.89-1.71-10.7A5.56,5.56,0,0,1,23,51.59v.2a5.45,5.45,0,0,0-5.34,3.33,5.53,5.53,0,0,0,1.21,6h0v.1c0,.1-3.12,8.28,1.61,10.5,2.52,1.21,7-2.52,9.68-6.56,2.42-3.64,3.93-8.48,1.11-11l.1-.1c2.92,2.63,1.31,7.47-1.11,11.21C27.91,68.75,24.18,72,21.56,72Z"/><path class="cls-3" d="M21.56,72.59a3.65,3.65,0,0,1-1.41-.31c-4.73-2.22-2.72-9.18-2.11-11a6.21,6.21,0,0,1-1.11-6.46A6.11,6.11,0,0,1,23,51a.68.68,0,0,1,.61.71.69.69,0,0,1-.71.61,4.7,4.7,0,0,0-4.73,3,4.48,4.48,0,0,0,1,5.25.67.67,0,0,1,.21.71c0,.1-2.93,7.77,1.31,9.79,2,.91,6-2,9-6.36,2.32-3.43,3.83-8,1.21-10.29a.65.65,0,0,1-.1-.91.64.64,0,0,1,.91-.1h0c3.22,2.82,1.61,8.07-1,11.91C28.31,69.16,24.49,72.59,21.56,72.59Z"/><path class="cls-3" d="M53.5,56.43a.57.57,0,0,1-.6-.56v0a.56.56,0,0,1,.1-.4c0-.11,3.73-5.36,4.84-7.37a.65.65,0,0,1,.9-.21h0a.55.55,0,0,1,.25.73l0,.08c-1.21,2.12-4.74,7.27-4.94,7.47C54,56.33,53.81,56.43,53.5,56.43Z"/><path class="cls-3" d="M24.89,52.7A7.71,7.71,0,0,1,19.65,51a5.46,5.46,0,0,1-1.51-4.14c0-2.92,2.11-5.55,5.44-6.56,3-1,5.84-.3,7.35,1.72a4.59,4.59,0,0,1-.4,6.26,4.8,4.8,0,0,1-1.41,3,4.64,4.64,0,0,1-3.43,1.31h-.2A1.25,1.25,0,0,1,24.89,52.7ZM26.2,41.19a6.55,6.55,0,0,0-2.32.4c-2.12.71-4.53,2.53-4.53,5.35a4.17,4.17,0,0,0,1.1,3.13c1.42,1.42,3.93,1.32,4.84,1.32h.3a3.85,3.85,0,0,0,2.52-1,3.35,3.35,0,0,0,1-2.43.79.79,0,0,1,.2-.5,3.51,3.51,0,0,0,.4-4.75A4.45,4.45,0,0,0,26.2,41.19Z"/><path class="cls-3" d="M20.15,85.31a5,5,0,0,1-3.42-1.21,4.67,4.67,0,0,1-1.62-3.54c0-3.83,3.93-8.07,4.94-9.08L20,69.86a.75.75,0,0,1,.5-.7h.21a10.44,10.44,0,0,1,4.43,1.41,14,14,0,0,1,6.75,8.18v.1a.66.66,0,0,1-.2.7,29.58,29.58,0,0,1-8.26,5A8.38,8.38,0,0,1,20.15,85.31Zm1.11-14.64.1,1.11a.7.7,0,0,1-.2.5s-4.84,4.65-4.74,8.28a3.21,3.21,0,0,0,1.21,2.53c2.32,2.12,6.65.7,12.9-4.24C28.11,72.49,23.18,71,21.26,70.67Z"/><path class="cls-3" d="M18.74,61.68a.57.57,0,0,1-.6-.56v-.24c.1-.1,1.51-3.64,3.52-5.45a.64.64,0,1,1,.81,1h0a15.72,15.72,0,0,0-3.12,5A.58.58,0,0,1,18.74,61.68Z"/><path class="cls-3" d="M21.46,72.49a2.87,2.87,0,0,1-1.31-.31C15.42,70,17.43,62.9,18,61.18a1.49,1.49,0,0,1-.31-.4.62.62,0,0,1,0-.81,5.73,5.73,0,0,1,1.62-1.52c.1,0,.1-.1.2-.1a8.17,8.17,0,0,1,1.31-.1A11.48,11.48,0,0,1,31.34,63.7a.88.88,0,0,1,0,.71C28.82,68.65,24.59,72.49,21.46,72.49ZM19,60.47l.1.1a.67.67,0,0,1,.21.71c0,.1-2.93,7.88,1.31,9.79,2.11,1,6.55-2.42,9.37-7.06a10,10,0,0,0-9.17-4.45h0a3.82,3.82,0,0,0-1,.11Z"/><path class="cls-3" d="M45.64,55.83c-2.82,0-9.57-3.43-10.07-5.55a7.93,7.93,0,0,1-.1-3,86,86,0,0,0-9.68-3.74A.68.68,0,0,1,26,42.17l.13,0h0a59.51,59.51,0,0,1,10.38,4,.65.65,0,0,1,.3.81,5.78,5.78,0,0,0,0,2.92c.1.51,1.51,1.72,3.83,2.93a11.8,11.8,0,0,0,5.14,1.62A5.74,5.74,0,0,0,49,52.6a.67.67,0,0,1,.71-.2l4.63,1.71a.65.65,0,0,1,.4.81.63.63,0,0,1-.8.4h0l-4.23-1.51a7.11,7.11,0,0,1-3.73,2Z"/><path class="cls-3" d="M29.83,48.66h0a.56.56,0,0,1-.62-.5.5.5,0,0,1,0-.21,3.36,3.36,0,0,0-.91-2.52,3.53,3.53,0,0,0-3.12-.2.65.65,0,0,1-.81-.41.63.63,0,0,1,.41-.8h0c1.81-.51,3.22-.41,4.23.4A4.6,4.6,0,0,1,30.43,48C30.43,48.46,30.23,48.66,29.83,48.66Z"/><path class="cls-3" d="M74.26,43.11a10,10,0,0,1-3.93-1,.68.68,0,0,1,.61-1.21h0c.8.4,3,1.21,4.43.7a1.78,1.78,0,0,0,.91-1,1.2,1.2,0,0,0-.1-1c-.71-1.11-2.83-1.71-3.63-1.91a.7.7,0,0,1-.51-.81c.11-.3.41-.61.71-.51s3.43.71,4.43,2.53a2,2,0,0,1,.2,2,2.63,2.63,0,0,1-1.61,1.81A2.77,2.77,0,0,1,74.26,43.11Z"/><path class="cls-2" d="M46.75,37.56c5.85,1.91,13.2,3,17.74.7s11.48-7.87,14.91-3c4.13,5.86-8.46,19.79-25.9,20.5,0,0-27.91,35.43-36.47,27.76-4.54-4,3.63-11.81,3.63-11.81L19.55,52.8s-4.64-.3-4.74-4.95C14.91,41.7,22.87,30,46.75,37.56Z"/><path class="cls-3" d="M20.15,84.7A4.68,4.68,0,0,1,17,83.59a3.9,3.9,0,0,1-1.41-3c0-3.83,4.53-8.38,4.94-8.78L19.45,53c-.61-.1-4.64-.7-4.74-5a12.1,12.1,0,0,1,5.34-9.38c4.13-3,12.09-5.66,26.6-1.12h0c3.53,1.12,12.3,3.44,17.74.81.9-.4,1.81-1,2.82-1.51,4.13-2.42,9.37-5.45,12.19-1.42,1.11,1.62,1.11,3.84-.2,6.37-1.61,3.33-5,6.66-9.37,9.28a34.34,34.34,0,0,1-16.43,5c-.4.5-5.74,7.27-12.29,14C32,79.35,25.09,84.4,20.56,84.8,20.56,84.7,20.35,84.7,20.15,84.7Zm12.5-49.57c-5.95,0-9.88,1.72-12.4,3.54A12.12,12.12,0,0,0,15,48c0,4.45,4.54,4.85,4.64,4.85h.1v.1l1.11,18.88h0s-5,4.74-4.94,8.68a4,4,0,0,0,1.31,2.93,4.28,4.28,0,0,0,3.53,1C31.54,83.49,53.3,55.83,53.5,55.63h0a34.71,34.71,0,0,0,16.43-5c4.33-2.62,7.66-6,9.27-9.19,1.21-2.42,1.21-4.64.2-6.16-2.82-3.83-7.86-.9-12,1.42a25.46,25.46,0,0,1-2.82,1.51c-5.44,2.73-14.31.41-17.84-.7h0A49,49,0,0,0,32.65,35.13Z"/><path class="cls-3" d="M20.15,85.31a4.92,4.92,0,0,1-3.42-1.21,4.67,4.67,0,0,1-1.62-3.54c0-3.83,3.93-8.07,4.94-9.08L19,53.41a5.45,5.45,0,0,1-4.73-5.56A12.64,12.64,0,0,1,19.85,38c4.23-3.13,12.39-5.86,27.1-1.11,7.16,2.32,13.71,2.62,17.34.81.8-.41,1.81-1,2.82-1.52a31.73,31.73,0,0,1,6.75-3.23c2.72-.7,4.83,0,6.25,1.92,1.2,1.72,1.2,4.24-.11,6.87-1.61,3.43-5.13,6.86-9.57,9.59a35.73,35.73,0,0,1-16.42,5c-2.32,2.93-22.47,28-33.15,28.88A2.14,2.14,0,0,1,20.15,85.31Zm12.5-49.57c-5.85,0-9.58,1.61-12.09,3.43a11.57,11.57,0,0,0-5,8.78c0,3.94,3.93,4.24,4.13,4.24a.66.66,0,0,1,.6.61l1.11,18.88a.7.7,0,0,1-.2.5s-4.84,4.65-4.74,8.28A3.23,3.23,0,0,0,17.63,83a4,4,0,0,0,3.13.9C31.24,83,52.9,55.53,53.2,55.32a.85.85,0,0,1,.51-.2c11.78-.5,22.06-7.37,25.19-13.83,1.1-2.22,1.21-4.24.2-5.55-2.52-3.43-7.16-.81-11.29,1.61-1,.61-2,1.11-2.82,1.62-5.64,2.83-14.61.4-18.24-.71h0A47.32,47.32,0,0,0,32.65,35.74Z"/><path class="cls-2" d="M23,51.59a5.56,5.56,0,0,0-4.23,9.49s-3.12,8.38,1.61,10.6S37.08,59.16,31.24,53.91"/><path class="cls-3" d="M21.56,72a3.87,3.87,0,0,1-1.11-.2c-4.63-2.12-2-9.89-1.71-10.7A5.56,5.56,0,0,1,23,51.59v.2a5.45,5.45,0,0,0-5.34,3.33,5.53,5.53,0,0,0,1.21,6h0v.1c0,.1-3.12,8.28,1.61,10.5,2.52,1.21,7-2.52,9.68-6.56,2.42-3.64,3.93-8.48,1.11-11l.1-.1c2.92,2.63,1.31,7.47-1.11,11.21C27.91,68.75,24.18,72,21.56,72Z"/><path class="cls-3" d="M21.56,72.59a3.65,3.65,0,0,1-1.41-.31c-4.73-2.22-2.72-9.18-2.11-11a6.21,6.21,0,0,1-1.11-6.46A6.11,6.11,0,0,1,23,51a.68.68,0,0,1,.61.71.69.69,0,0,1-.71.61,4.7,4.7,0,0,0-4.73,3,4.48,4.48,0,0,0,1,5.25.67.67,0,0,1,.21.71c0,.1-2.93,7.77,1.31,9.79,2,.91,6-2,9-6.36,2.32-3.43,3.83-8,1.21-10.29a.65.65,0,0,1-.1-.91.64.64,0,0,1,.91-.1h0c3.22,2.82,1.61,8.07-1,11.91C28.31,69.16,24.49,72.59,21.56,72.59Z"/><path class="cls-3" d="M53.5,56.43a.57.57,0,0,1-.6-.56v0a.56.56,0,0,1,.1-.4c0-.11,3.73-5.36,4.84-7.37a.65.65,0,0,1,.9-.21h0a.55.55,0,0,1,.25.73l0,.08c-1.21,2.12-4.74,7.27-4.94,7.47C54,56.33,53.81,56.43,53.5,56.43Z"/><path class="cls-3" d="M24.89,52.7A7.71,7.71,0,0,1,19.65,51a5.46,5.46,0,0,1-1.51-4.14c0-2.92,2.11-5.55,5.44-6.56,3-1,5.84-.3,7.35,1.72a4.59,4.59,0,0,1-.4,6.26,4.8,4.8,0,0,1-1.41,3,4.64,4.64,0,0,1-3.43,1.31h-.2A1.25,1.25,0,0,1,24.89,52.7ZM26.2,41.19a6.55,6.55,0,0,0-2.32.4c-2.12.71-4.53,2.53-4.53,5.35a4.17,4.17,0,0,0,1.1,3.13c1.42,1.42,3.93,1.32,4.84,1.32h.3a3.85,3.85,0,0,0,2.52-1,3.35,3.35,0,0,0,1-2.43.79.79,0,0,1,.2-.5,3.51,3.51,0,0,0,.4-4.75A4.45,4.45,0,0,0,26.2,41.19Z"/><path class="cls-3" d="M20.15,85.31a5,5,0,0,1-3.42-1.21,4.67,4.67,0,0,1-1.62-3.54c0-3.83,3.93-8.07,4.94-9.08L20,69.86a.75.75,0,0,1,.5-.7h.21a10.44,10.44,0,0,1,4.43,1.41,14,14,0,0,1,6.75,8.18v.1a.66.66,0,0,1-.2.7,29.58,29.58,0,0,1-8.26,5A8.38,8.38,0,0,1,20.15,85.31Zm1.11-14.64.1,1.11a.7.7,0,0,1-.2.5s-4.84,4.65-4.74,8.28a3.21,3.21,0,0,0,1.21,2.53c2.32,2.12,6.65.7,12.9-4.24C28.11,72.49,23.18,71,21.26,70.67Z"/><path class="cls-3" d="M18.74,61.68a.57.57,0,0,1-.6-.56v-.24c.1-.1,1.51-3.64,3.52-5.45a.64.64,0,1,1,.81,1h0a15.72,15.72,0,0,0-3.12,5A.58.58,0,0,1,18.74,61.68Z"/><path class="cls-3" d="M21.46,72.49a2.87,2.87,0,0,1-1.31-.31C15.42,70,17.43,62.9,18,61.18a1.49,1.49,0,0,1-.31-.4.62.62,0,0,1,0-.81,5.73,5.73,0,0,1,1.62-1.52c.1,0,.1-.1.2-.1a8.17,8.17,0,0,1,1.31-.1A11.48,11.48,0,0,1,31.34,63.7a.88.88,0,0,1,0,.71C28.82,68.65,24.59,72.49,21.46,72.49ZM19,60.47l.1.1a.67.67,0,0,1,.21.71c0,.1-2.93,7.88,1.31,9.79,2.11,1,6.55-2.42,9.37-7.06a10,10,0,0,0-9.17-4.45h0a3.82,3.82,0,0,0-1,.11Z"/><path class="cls-3" d="M45.64,55.83c-2.82,0-9.57-3.43-10.07-5.55a7.93,7.93,0,0,1-.1-3,86,86,0,0,0-9.68-3.74A.68.68,0,0,1,26,42.17l.13,0h0a59.51,59.51,0,0,1,10.38,4,.65.65,0,0,1,.3.81,5.78,5.78,0,0,0,0,2.92c.1.51,1.51,1.72,3.83,2.93a11.8,11.8,0,0,0,5.14,1.62A5.74,5.74,0,0,0,49,52.6a.67.67,0,0,1,.71-.2l4.63,1.71a.65.65,0,0,1,.4.81.63.63,0,0,1-.8.4h0l-4.23-1.51a7.11,7.11,0,0,1-3.73,2Z"/><path class="cls-3" d="M29.83,48.66h0a.56.56,0,0,1-.62-.5.5.5,0,0,1,0-.21,3.36,3.36,0,0,0-.91-2.52,3.53,3.53,0,0,0-3.12-.2.65.65,0,0,1-.81-.41.63.63,0,0,1,.41-.8h0c1.81-.51,3.22-.41,4.23.4A4.6,4.6,0,0,1,30.43,48C30.43,48.46,30.23,48.66,29.83,48.66Z"/><path class="cls-3" d="M74.26,43.11a10,10,0,0,1-3.93-1,.68.68,0,0,1,.61-1.21h0c.8.4,3,1.21,4.43.7a1.78,1.78,0,0,0,.91-1,1.2,1.2,0,0,0-.1-1c-.71-1.11-2.83-1.71-3.63-1.91a.7.7,0,0,1-.51-.81c.11-.3.41-.61.71-.51s3.43.71,4.43,2.53a2,2,0,0,1,.2,2,2.63,2.63,0,0,1-1.61,1.81A2.77,2.77,0,0,1,74.26,43.11Z"/><path class="cls-4" d="M46.75,37.56c5.85,1.91,13.2,3,17.74.7s11.48-7.87,14.91-3c4.13,5.86-8.46,19.79-25.9,20.5,0,0-27.91,35.43-36.47,27.76-4.54-4,3.63-11.81,3.63-11.81L19.55,52.8s-4.64-.3-4.74-4.95C14.91,41.7,22.87,30,46.75,37.56Z"/><path class="cls-5" d="M65.49,39.78s.71,9.69,9.58,8l4-5.75,1.21-3.23-.2-2.43-1.52-2.12-2.21-.5A32.6,32.6,0,0,0,65.49,39.78Z"/><g class="cls-6"><path class="cls-7" d="M56,49.06c-8.16,10.61-32.54,38.07-40.3,31.4a4.13,4.13,0,0,0,1.31,3C25.59,91.16,53.5,55.73,53.5,55.73c.61,0,4.34-7.37,4.94-7.47C58.74,47.35,57.43,47.15,56,49.06Z"/></g><g class="cls-6"><path class="cls-7" d="M17.13,41.7a11.54,11.54,0,0,0-2.12,6,4.7,4.7,0,0,0,4.44,4.85c4.73-1.72,8.26-7.47,8.26-7.47C15.42,52.5,16.63,44.12,17.13,41.7Z"/></g><path class="cls-1" d="M20.66,69.86h0l.1,1.92s-8.16,7.67-3.63,11.81c3,2.73,8.36,0,14.11-4.54V79C28.21,70.37,20.66,69.86,20.66,69.86Z"/><g class="cls-8"><path class="cls-9" d="M21.36,71S28.62,74.3,28.82,78c0,1.31-1.72,3.63-5.44,6,0,0,6.24-3.34,8.06-5,0,0-4.34-10.6-10.28-7.57"/></g><g class="cls-6"><path class="cls-7" d="M29.93,76.12C24,80.56,18.74,83,15.72,80.56v.61c0,.2.1.4.1.6a.38.38,0,0,0,.1.31c.1.2.2.5.3.7a.11.11,0,0,0,.1.11,5.42,5.42,0,0,0,.71.8c.1,0,.1.1.2.1s.3.31.5.41a.75.75,0,0,1,.31.2,1.42,1.42,0,0,0,.6.2c.1,0,.2.1.3.1a2.55,2.55,0,0,0,.91.1h.2a2,2,0,0,0,.81-.1h.3a.34.34,0,0,0,.3-.1,7.57,7.57,0,0,0,1.41-.4c.1,0,.2-.1.31-.1a18.45,18.45,0,0,0,3.72-1.92c1.11-.71,2.22-1.52,3.33-2.32a6.19,6.19,0,0,0,.91-.71v-.1A11.05,11.05,0,0,0,29.93,76.12Z"/></g><g class="cls-8"><path class="cls-9" d="M54.31,54.82s-4.23-2.73-5.64-1.72S47.36,54.92,46,55s-8.77-2.52-9.47-4.74.3-1.62,0-3.23-5-3.54-8.27-4.24c0,0-1,.6.1.9,3.83,1.11,6.86,2.73,7.06,3.64.1.71-.51,1.71,0,3.23.7,2,8.26,6.06,10.48,5.65,2.41-.4,2.31-1.71,3.42-2.12.61-.2.91-.2,4.44,1.21"/></g><g class="cls-8"><path class="cls-9" d="M75.37,33.32a11.31,11.31,0,0,0-2.92.7c8.76.2,6.24,8.38,6.24,8.38a.1.1,0,0,0,.11-.1c1.61-2.73,1.91-5.35.6-7.17A4.3,4.3,0,0,0,75.37,33.32Z"/></g><path class="cls-3" d="M20.15,85.31a4.92,4.92,0,0,1-3.42-1.21,4.67,4.67,0,0,1-1.62-3.54c0-3.83,3.93-8.07,4.94-9.08L19,53.41a5.45,5.45,0,0,1-4.73-5.56A12.64,12.64,0,0,1,19.85,38c4.23-3.13,12.39-5.86,27.1-1.11,7.16,2.32,13.71,2.62,17.34.81.8-.41,1.81-1,2.82-1.52a31.73,31.73,0,0,1,6.75-3.23c2.72-.7,4.83,0,6.25,1.92,1.2,1.72,1.2,4.24-.11,6.87-1.61,3.43-5.13,6.86-9.57,9.59a35.73,35.73,0,0,1-16.42,5c-2.32,2.93-22.47,28-33.15,28.88A2.14,2.14,0,0,1,20.15,85.31Zm12.5-49.57c-5.85,0-9.58,1.61-12.09,3.43a11.57,11.57,0,0,0-5,8.78c0,3.94,3.93,4.24,4.13,4.24a.66.66,0,0,1,.6.61l1.11,18.88a.7.7,0,0,1-.2.5s-4.84,4.65-4.74,8.28A3.23,3.23,0,0,0,17.63,83a4,4,0,0,0,3.13.9C31.24,83,52.9,55.53,53.2,55.32a.85.85,0,0,1,.51-.2c11.78-.5,22.06-7.37,25.19-13.83,1.1-2.22,1.21-4.24.2-5.55-2.52-3.43-7.16-.81-11.29,1.61-1,.61-2,1.11-2.82,1.62-5.64,2.83-14.61.4-18.24-.71h0A47.32,47.32,0,0,0,32.65,35.74Z"/><path class="cls-3" d="M53,55.43l1.21-1.82c.4-.61.91-1.21,1.31-1.82a11.74,11.74,0,0,1,1.41-1.72l1.41-1.71h.1v.1c-.3.71-.6,1.41-.91,2a21.89,21.89,0,0,1-1.1,2c-.41.6-.71,1.31-1.11,1.92s-.84,1.23-1.31,1.81a.64.64,0,0,1-.89.12l0,0A1,1,0,0,1,53,55.43Z"/><path class="cls-3" d="M20.15,85.31a5,5,0,0,1-3.42-1.21,4.67,4.67,0,0,1-1.62-3.54c0-3.83,3.93-8.07,4.94-9.08L20,69.86a.75.75,0,0,1,.5-.7h.21a10.44,10.44,0,0,1,4.43,1.41,14,14,0,0,1,6.75,8.18v.1a.66.66,0,0,1-.2.7,29.58,29.58,0,0,1-8.26,5A8.38,8.38,0,0,1,20.15,85.31Zm1.11-14.64.1,1.11a.7.7,0,0,1-.2.5s-4.84,4.65-4.74,8.28a3.21,3.21,0,0,0,1.21,2.53c2.32,2.12,6.65.7,12.9-4.24C28.11,72.49,23.18,71,21.26,70.67Z"/><path class="cls-3" d="M45.64,55.63c-2.72,0-9.37-3.33-9.77-5.35a3.42,3.42,0,0,1,.2-2.12.78.78,0,0,0-.1-1c-1.31-1.82-4.53-2.63-7.76-3.23-.8-.21-1.51-.31-2.31-.51a.57.57,0,0,1-.31-.5c0-.21.31-.31.51-.31.7.21,1.51.31,2.31.51,3.33.71,6.76,1.51,8.27,3.63a2.06,2.06,0,0,1,.2,1.82,2,2,0,0,0-.1,1.62c.3,1.51,7.15,5,9.27,4.74A2.28,2.28,0,0,0,47.66,54a2.46,2.46,0,0,1,2-1.11c1.81-.1,4.73,1.62,4.93,1.62a.43.43,0,0,1-.5.7s-2.82-1.61-4.43-1.51a1.81,1.81,0,0,0-1.42.81,2.81,2.81,0,0,1-2.11,1.21A1.25,1.25,0,0,0,45.64,55.63Z"/><g class="cls-8"><path class="cls-9" d="M76.78,40.89s-2.32-2.83-7.76-3l.91-1.21S77.18,37.05,76.78,40.89Z"/></g><g class="cls-6"><path class="cls-3" d="M71.24,39.88a1,1,0,0,0-1.21.2l-.2.2a3.19,3.19,0,0,0,1.41,2c.1-.1.1-.2.2-.3a3.16,3.16,0,0,0,.91.2c1.51.3,4.53.5,4.53-2.52C76.88,39.78,76.38,42.2,71.24,39.88Z"/></g><path class="cls-3" d="M72.55,37a5.5,5.5,0,0,1,1.81,0,11.62,11.62,0,0,1,1.71.71c.31.2.51.4.81.6l.61.91a4.62,4.62,0,0,1,.2,1.11v.3l-.1.31c-.1.2-.1.3-.21.5l-.6.91-.91.61a3.21,3.21,0,0,1-1.91.2,4.64,4.64,0,0,1-1.71-.51,6.37,6.37,0,0,1-1.41-1v-.2h.1a8,8,0,0,1,1.61.2,7.62,7.62,0,0,0,1.51.11,6.06,6.06,0,0,0,1.41-.11,1.14,1.14,0,0,0,.81-.7c0-.1.1-.2.1-.31v-.2a1,1,0,0,0-.1-.5,6.35,6.35,0,0,0-.81-.91c-.42-.29-.86-.56-1.31-.81a11.68,11.68,0,0,1-1.41-.91h0C72.45,37.15,72.45,37.05,72.55,37Z"/><g class="cls-6"><path class="cls-7" d="M72.15,34.43c-2.52,1.11-5.14,2.82-7.26,3.83-4.53,2.22-11.89,1.11-17.73-.81-8-2.52-14.21-2.92-18.95-2a24.24,24.24,0,0,0,43.94-1Z"/></g><path class="cls-1" d="M66.1,29.38c1.31-3.74,4.53-6.06,7.15-5.15s3.83,4.74,2.52,8.48-4.53,6.06-7.15,5.15S64.79,33.21,66.1,29.38Z"/><g class="cls-6"><path class="cls-10" d="M66.3,28.87c-.1.1-.1.31-.2.41-1.31,3.73-.2,7.57,2.52,8.48s5.84-1.42,7.15-5.15a10.4,10.4,0,0,0,.51-3c-1.41,3.53-4.44,5.65-7,4.75C67.31,33.62,66.2,31.4,66.3,28.87Z"/><path class="cls-3" d="M69.83,38a5.46,5.46,0,0,1-1.21-.2c-2.72-.91-3.83-4.75-2.52-8.58a.41.41,0,0,1,.1-.21c0-.1,0-.1.1-.2l.2-.4v.5c0,2.63,1.11,4.75,2.92,5.35C71.94,35,75,33,76.28,29.48l.2-.4v.5a10.4,10.4,0,0,1-.51,3A8.28,8.28,0,0,1,72.85,37,5.14,5.14,0,0,1,69.83,38ZM66.2,29.28h0c-1.31,3.73-.2,7.47,2.42,8.38a4.63,4.63,0,0,0,4-.81,8.88,8.88,0,0,0,3-4.24,10,10,0,0,0,.51-2.52c-1.52,3.33-4.44,5.24-7,4.34C67.51,33.72,66.3,31.8,66.2,29.28Z"/></g><g class="cls-8"><path class="cls-9" d="M72.45,23.93a4,4,0,0,0-2.12.5c5.34,2,6,6.06,6,7.07.7-3.33-.41-6.46-2.82-7.27A2.28,2.28,0,0,0,72.45,23.93Z"/></g><path class="cls-3" d="M69.83,38.77a7.37,7.37,0,0,1-1.41-.2c-3-1-4.34-5.25-2.93-9.29h0c1.42-4.14,4.94-6.56,8-5.56S77.79,29,76.38,33C75.17,36.45,72.45,38.77,69.83,38.77ZM66.7,29.58c-1.21,3.43-.2,6.87,2.12,7.67a3.13,3.13,0,0,0,1,.2c2.11,0,4.33-2,5.34-4.94,1.21-3.43.2-6.87-2.12-7.67S67.91,26.25,66.7,29.58Z"/><path class="cls-4" d="M27.91,23C27.91,10.8,38.29.91,51.19.91S74.46,10.8,74.46,23,64.08,45.13,51.19,45.13,27.91,35.23,27.91,23Z"/><g class="cls-8"><path class="cls-9" d="M51.29.81A24,24,0,0,0,33.65,8.48,26.37,26.37,0,0,1,58.44,3.94a27.59,27.59,0,0,1,3.13,1.31c-.21.4.6,1.41,1.81,2.22s2.32,1.11,2.72.81a26.76,26.76,0,0,1,8.36,14.64C74.56,10.7,64.19.81,51.29.81Z"/></g><g class="cls-8"><path class="cls-9" d="M51.19.3a4.55,4.55,0,0,0-1.11.1c0,.41-.1.91-.1,1.42v.4a28.24,28.24,0,0,1,8.36,1.31,28.6,28.6,0,0,1,3.12,1.32c-.2.4.61,1.41,1.82,2.22s2.32,1.11,2.72.8a25.08,25.08,0,0,1,5.74,7.37,9.19,9.19,0,0,0,1.11-.5,10.34,10.34,0,0,0-.7-1.51h0A18.72,18.72,0,0,0,69.42,9c-.3-.41-.7-.81-1-1.22l-.2-.2a14.53,14.53,0,0,0-1.11-1.11h0l-.1-.1c-.71-.61-1.41-1.21-2.12-1.72-.2-.1-.4-.3-.6-.4a3.68,3.68,0,0,0-.91-.5c-.3-.21-.5-.31-.81-.51a7.77,7.77,0,0,0-1-.5c-.31-.11-.61-.31-.91-.41s-.61-.3-.91-.4l-1.81-.61a5.75,5.75,0,0,0-.71-.2L55.82.81a2,2,0,0,0-.8-.1c-.41-.1-.91-.1-1.31-.21C53.5.5,53.2.4,53,.4S52,.3,51.19.3Z"/><path class="cls-3" d="M71.84,15.35h0A23.32,23.32,0,0,0,66.1,8a3.81,3.81,0,0,1-2.72-.81c-1.21-.81-2-1.72-1.92-2.22-1.1-.51-2.11-.91-3-1.32a26.66,26.66,0,0,0-8.36-1.31H50v-.5A6.14,6.14,0,0,1,50.08.4V.3h.5A14,14,0,0,1,53.4.4,1.4,1.4,0,0,1,54,.5h.1a5.87,5.87,0,0,1,1.31.21h.1c.2,0,.5.1.7.1.51.1,1,.2,1.42.3a.37.37,0,0,1,.3.1c.1,0,.3.1.4.1l1.81.61c.21.1.51.2.71.3l.2.1c.3.1.61.3.91.41a5,5,0,0,1,1,.5c.3.2.5.3.8.51l.1.1a2.94,2.94,0,0,1,.71.5.49.49,0,0,0,.4.2l.2.2a17.51,17.51,0,0,1,2.12,1.72h0a14.53,14.53,0,0,1,1.11,1.11l.1.1.1.1a11.89,11.89,0,0,1,1,1.22,19,19,0,0,1,2.72,4.24h0c.2.5.5,1,.7,1.51v.1H73a3.36,3.36,0,0,1-.91.4ZM66.1,7.67h0A26.57,26.57,0,0,1,71.94,15l.1-.1a2,2,0,0,0,.81-.4c-.2-.51-.4-1-.6-1.42h0a19.5,19.5,0,0,0-2.72-4.24c-.31-.4-.71-.8-1-1.21l-.1-.1-.1-.1a5.08,5.08,0,0,0-1.11-1h0c-.71-.6-1.41-1.21-2.12-1.72l-.2-.2c-.1-.1-.2-.2-.3-.2-.2-.2-.51-.3-.71-.5l-.1-.1c-.3-.21-.5-.31-.8-.51a8.61,8.61,0,0,0-1-.5,6.15,6.15,0,0,1-.81-.41l-.2-.1a4.76,4.76,0,0,0-.7-.3l-1.82-.61c-.1,0-.3-.1-.4-.1a.37.37,0,0,1-.3-.1c-.41-.1-.91-.2-1.41-.3-.21,0-.51-.1-.71-.1h-.1c-.5-.1-.91-.1-1.31-.21h-.1A1.16,1.16,0,0,1,53.5.4C52.57.32,51.62.29,50.68.3h-.3c0,.51-.1.91-.1,1.32v.3a28.57,28.57,0,0,1,8.26,1.31,16.84,16.84,0,0,1,3.13,1.31h.1v.1c-.1.31.5,1.22,1.81,2.12C64.69,7.77,65.7,8,66.1,7.67Z"/></g><path class="cls-2" d="M51.29.81a4.14,4.14,0,0,0-1.11.1c0,.5-.1.91-.1,1.41C50.08,10.4,57,17,65.6,17A15.79,15.79,0,0,0,73,15.24,23.06,23.06,0,0,0,51.29.81Z"/><path class="cls-3" d="M65.7,17.06C57,17.06,50.08,10.4,50.08,2.32a7.44,7.44,0,0,1,.1-1.41V.81h1.21a24,24,0,0,1,13.4,4,22.89,22.89,0,0,1,8.46,10.39v.11h-.1A17.15,17.15,0,0,1,65.7,17.06ZM50.28,1c0,.5-.1.91-.1,1.31,0,8.08,7,14.64,15.52,14.64A16.18,16.18,0,0,0,73,15.24,23.37,23.37,0,0,0,51.29,1Z"/><g class="cls-6"><path class="cls-7" d="M29.32,16.76a21.15,21.15,0,0,0-1,6.56c0,12.22,10.38,22.11,23.28,22.11A23.26,23.26,0,0,0,73.05,31.9c-4.43,5.45-11.38,11-20.35,10.6-15.52-.8-23.38-12-23.38-24.83Z"/></g><path class="cls-3" d="M51.19,45.73c-13.2,0-23.88-10.19-23.88-22.81S38.09.1,51.19.1,75.07,10.3,75.07,22.92,64.39,45.73,51.19,45.73Zm0-44.22c-12.5,0-22.67,9.6-22.67,21.51s10.17,21.5,22.67,21.5S73.86,34.93,73.86,23,63.68,1.51,51.19,1.51Z"/><path class="cls-11" d="M36.17,20.9c1.62-8.08,10.58-14,19.65-12.12s16.63,9.9,14.81,18.68c-1.81,9.29-11.79,13.73-20.85,11.81S34.56,29,36.17,20.9Z"/><g class="cls-6"><path class="cls-10" d="M37.68,16.56a13.45,13.45,0,0,0-1.61,4.34C34.46,29,40.61,37.45,49.68,39.27c8.46,1.82,17.83-2,20.45-10.19-3.63,6.25-11.79,9.08-19.25,7.47-9.06-1.92-15.21-10.3-13.6-18.38A13.05,13.05,0,0,1,37.68,16.56Z"/><path class="cls-3" d="M53.91,39.78a20,20,0,0,1-4.23-.41,17.58,17.58,0,0,1-10.89-7A14.54,14.54,0,0,1,36,20.8a16.31,16.31,0,0,1,1.61-4.34l.41-.71-.31.81a9.72,9.72,0,0,0-.4,1.61c-1.61,8.08,4.64,16.46,13.5,18.28C58.64,38.06,66.5,35,69.93,29l.4-.7-.3.81A15.15,15.15,0,0,1,62,38,18.14,18.14,0,0,1,53.91,39.78ZM37.38,17.36a11.69,11.69,0,0,0-1.21,3.54C34.56,29,40.81,37.35,49.68,39.17a19.38,19.38,0,0,0,4.23.4c7.15,0,13.4-3.73,15.82-9.79-3.73,5.66-11.39,8.38-19,6.87a17.64,17.64,0,0,1-10.88-7,14.52,14.52,0,0,1-2.82-11.61C37.28,18,37.28,17.67,37.38,17.36Z"/></g><path class="cls-3" d="M53.91,40.38a20,20,0,0,1-4.23-.4,18.16,18.16,0,0,1-11.19-7.17,15.16,15.16,0,0,1-2.92-12h0a16.17,16.17,0,0,1,7-10A17.74,17.74,0,0,1,56,8.18a21.88,21.88,0,0,1,11.89,7,15,15,0,0,1,3.53,12.52,14.78,14.78,0,0,1-6.55,9.69A21.58,21.58,0,0,1,53.91,40.38ZM36.78,21c-1.51,7.77,4.43,15.85,13.1,17.67A18.9,18.9,0,0,0,64,36.14,13.41,13.41,0,0,0,70,27.26C71.74,18.37,64,11,55.72,9.29a16.55,16.55,0,0,0-12.49,2.42A15.79,15.79,0,0,0,36.78,21Z"/><path class="cls-1" d="M26,14.13C27.31,10.4,30.53,8.08,33.15,9s3.83,4.74,2.52,8.48-4.53,6.05-7.15,5.14S24.69,17.87,26,14.13Z"/><g class="cls-8"><path class="cls-9" d="M32.14,9c-2.42-.11-5,2-6.14,5.35a7.6,7.6,0,0,0-.41,1.41C26.9,12.11,30,9.89,32.65,10.8c2.31.81,3.52,3.84,2.92,7.07,0-.1.1-.1.1-.2,1.31-3.74.2-7.57-2.52-8.48A3.13,3.13,0,0,0,32.14,9Z"/></g><path class="cls-11" d="M26.1,13.83c1-2.42,2.72-3.73,3.93-3s1.41,3.43.5,5.86-2.72,3.73-3.93,3C25.29,18.78,25.09,16.25,26.1,13.83Z"/><g class="cls-6"><path class="cls-7" d="M26.4,12.92a6.06,6.06,0,0,0-.5,1.21c-1.31,3.74-.21,7.58,2.51,8.48s5.85-1.41,7.16-5.14a10.22,10.22,0,0,0,.4-1.72c-1.51,3-4.23,4.74-6.65,3.94S25.9,16.05,26.4,12.92Z"/></g><path class="cls-3" d="M29.72,23.42a6.85,6.85,0,0,1-1.41-.2c-3-1-4.33-5.25-2.92-9.29h0a9.36,9.36,0,0,1,3.33-4.64,5.14,5.14,0,0,1,4.73-.91A5.06,5.06,0,0,1,36.58,12a9.92,9.92,0,0,1-.21,5.66C35.06,21.1,32.34,23.42,29.72,23.42ZM26.6,14.34c-1.21,3.43-.2,6.86,2.12,7.67a3.78,3.78,0,0,0,1,.2c2.12,0,4.34-2,5.34-4.95a7.61,7.61,0,0,0,.21-4.94A3.79,3.79,0,0,0,33,9.59a3.9,3.9,0,0,0-3.53.71A8.61,8.61,0,0,0,26.6,14.34Z"/><path class="cls-1" d="M51.29.81a4.14,4.14,0,0,0-1.11.1c0,.5-.1.91-.1,1.41a14.44,14.44,0,0,0,7.15,12.32A15.89,15.89,0,0,0,65.7,17a15.79,15.79,0,0,0,7.35-1.72A23.3,23.3,0,0,0,51.29.81Z"/><g class="cls-8"><path class="cls-9" d="M51.29.81a4.14,4.14,0,0,0-1.11.1c0,.4-.1.91-.1,1.41v.41A27.87,27.87,0,0,1,58.44,4a27.59,27.59,0,0,1,3.13,1.31c-.21.4.6,1.41,1.81,2.22s2.32,1.11,2.72.81a24.83,24.83,0,0,1,5.74,7.37A11.14,11.14,0,0,0,73,15.24a10.34,10.34,0,0,0-.7-1.51h0a19.26,19.26,0,0,0-2.72-4.24c-.31-.4-.71-.81-1-1.21l-.2-.2A11.63,11.63,0,0,0,67.21,7h0l-.1-.1C66.4,6.26,65.7,5.65,65,5.15c-.2-.1-.4-.3-.6-.41a4.47,4.47,0,0,0-.91-.5c-.3-.2-.5-.3-.81-.5a9.4,9.4,0,0,0-1-.51c-.31-.1-.61-.3-.91-.4s-.61-.31-.91-.41L58,1.82a5.75,5.75,0,0,0-.71-.2l-1.41-.31a2.41,2.41,0,0,0-.8-.1c-.41-.1-.91-.1-1.31-.2-.2,0-.51-.1-.71-.1C52.7.91,52,.81,51.29.81Z"/></g><path class="cls-3" d="M27.31,20.49a2,2,0,0,1-1.11-.3c-1.51-.91-1.82-3.84-.71-6.56h0a5.66,5.66,0,0,1,3-3.53,2.18,2.18,0,0,1,1.81.2c1.51.91,1.81,3.83.7,6.56a5.7,5.7,0,0,1-3,3.53C27.81,20.39,27.51,20.49,27.31,20.49ZM26.7,14c-.91,2.32-.6,4.55.2,5a.89.89,0,0,0,.71.1,4.49,4.49,0,0,0,2.22-2.72c.9-2.33.6-4.55-.21-5.05a.86.86,0,0,0-.7-.1A4.21,4.21,0,0,0,26.7,14Z"/><path class="cls-3" d="M65.7,17.57c-9,0-16.23-6.87-16.23-15.35a6.65,6.65,0,0,1,.1-1.41A.67.67,0,0,1,50.18.2h1.11A24.39,24.39,0,0,1,65,4.34a23.42,23.42,0,0,1,8.67,10.6.64.64,0,0,1-.31.81A16.8,16.8,0,0,1,65.7,17.57ZM50.78,1.51v.81c0,7.78,6.65,14,14.92,14a16.31,16.31,0,0,0,6.55-1.41,22.74,22.74,0,0,0-21-13.43Z"/><path class="cls-7" d="M49.37,19.18c.51-1.51,1.72-2.52,2.82-2.22s1.52,1.92,1,3.43-1.71,2.53-2.82,2.22S48.87,20.8,49.37,19.18Z"/><path class="cls-12" d="M51.09,19c.2-.5.6-.81.9-.71a.85.85,0,0,1,.31,1.11c-.21.51-.61.81-.91.71S51,19.48,51.09,19Z"/><path class="cls-7" d="M51.59,24.53c1.51-.7,7.86,1.62,8.36,3.43s-3,6-7.55,4.25C48.37,30.69,49.47,25.54,51.59,24.53Z"/><path class="cls-13" d="M50.58,26.45a1.25,1.25,0,0,0-.6.1c-.71,1.92-.41,4.65,2.32,5.66a5.73,5.73,0,0,0,3.12.3c0-.2.1-.41.1-.61A5.28,5.28,0,0,0,50.58,26.45Z"/><path class="cls-3" d="M54.51,32.71a5.73,5.73,0,0,1-2.21-.4c-2.73-1-3.13-3.74-2.42-5.76h.7a5.37,5.37,0,0,1,5,5.55v.71h-.1A3.44,3.44,0,0,0,54.51,32.71Zm-4.43-6.06c-.71,2-.3,4.55,2.32,5.56a5.28,5.28,0,0,0,3,.3V32a5.17,5.17,0,0,0-4.84-5.35A.45.45,0,0,0,50.08,26.65Z"/><path class="cls-3" d="M54.51,33.32a10.48,10.48,0,0,1-2.42-.41A4.66,4.66,0,0,1,49,28.67,5.22,5.22,0,0,1,51.19,24h0c1.31-.71,4.43.4,5.94,1.11,1.31.6,3,1.61,3.33,2.82s-.41,2.63-1.72,3.74A6.3,6.3,0,0,1,54.51,33.32Zm-2.62-8.18a3.55,3.55,0,0,0-1.51,3.33A3.36,3.36,0,0,0,52.7,31.6a5.2,5.2,0,0,0,5.44-1,3.23,3.23,0,0,0,1.31-2.52c-.1-.41-1-1.11-2.62-1.92C54.51,25.24,52.4,24.84,51.89,25.14Z"/><path class="cls-3" d="M44.94,28.07h0c-.2,0-4.53-.11-6.45-1-3.73-1.82-6.45-8.69-6.55-9a.65.65,0,0,1,.4-.81.64.64,0,0,1,.81.41c0,.1,2.62,6.66,5.84,8.28,1.72.8,5.95.9,5.95.9.4,0,.6.31.6.71S45.34,28.07,44.94,28.07Z"/><path class="cls-14" d="M45.14,25.44l3.12.4A2,2,0,0,1,50.09,28a.66.66,0,0,1,0,.14h0A2,2,0,0,1,47.89,30l-.13,0-3.12-.4a2,2,0,0,1-1.83-2.19s0-.09,0-.13h0A2,2,0,0,1,45,25.42Z"/><path class="cls-3" d="M48.06,30.09h-.3l-3.12-.41a2.18,2.18,0,1,1,.5-4.34l3.12.4a2.19,2.19,0,0,1-.2,4.35Zm-3.22-4.65a2,2,0,0,0-.2,4l3.12.4a2,2,0,1,0,.4-4h0L45,25.44Z"/><path class="cls-15" d="M45.14,25.44l3.12.4A2,2,0,0,1,50.09,28a.66.66,0,0,1,0,.14h0A2,2,0,0,1,47.89,30l-.13,0-3.12-.4a2,2,0,0,1-1.83-2.19s0-.09,0-.13h0A2,2,0,0,1,45,25.42Z"/><g class="cls-8"><path class="cls-9" d="M44.74,25.44a2.16,2.16,0,0,0-1.92,1.82v.2a2.24,2.24,0,0,1,1.92-.91l3.12.41a2,2,0,0,1,1.82,2.12,1.87,1.87,0,0,0,.4-1,2.15,2.15,0,0,0-1.82-2.33h0l-3.12-.4A.79.79,0,0,0,44.74,25.44Z"/></g><g class="cls-6"><path class="cls-7" d="M43.23,26.15a1.62,1.62,0,0,0-.51,1.11,2.14,2.14,0,0,0,1.82,2.32l3.12.4A2.12,2.12,0,0,0,50,28.17a3.81,3.81,0,0,0-.1-1,1.77,1.77,0,0,1-2,1.31l-2.92-.3A2,2,0,0,1,43.23,26.15Z"/></g><path class="cls-3" d="M48.06,30.59h-.3l-3.12-.4a2.75,2.75,0,0,1,.6-5.46h0l3.13.41a2.74,2.74,0,0,1-.31,5.45Zm-3.22-4.54a1.38,1.38,0,0,0-1.41,1.35v.06a1.5,1.5,0,0,0,1.31,1.41l3.12.41a1.47,1.47,0,0,0,.47-2.91l-.17,0L45,26C44.94,26.05,44.94,26.05,44.84,26.05Z"/><g class="cls-6"><path class="cls-7" d="M79.1,42c-.41.3-12.8,10.9-23.08,10.4L53.5,56C65.9,55.63,76,48.26,79.1,42Z"/></g><path class="cls-4" d="M23,51.59a5.56,5.56,0,0,0-4.23,9.49s-3.12,8.38,1.61,10.6S37.08,59.16,31.24,53.91"/><g class="cls-6"><path class="cls-10" d="M32.24,55c.41,2.53-5.64,13.53-10.17,12.92-5.14-.7-1-10.8-1-10.8l-2.22,4.14c-.1.3-3,8.28,1.72,10.5C25,73.8,35.67,60.88,32.24,55Z"/><path class="cls-3" d="M21.46,72a3.81,3.81,0,0,1-1.11-.2c-4.73-2.22-1.81-10.3-1.71-10.6L20.86,57l.2.1c0,.1-2.62,6.56-1,9.39a2.88,2.88,0,0,0,2,1.31c1.31.2,2.82-.6,4.43-2.22,3.12-3.13,5.84-8.78,5.64-10.5l-.1-.4.2.4c2,3.43-.7,9.09-4.13,12.92C25.79,70.47,23.38,72,21.46,72Zm-1-13.83-1.61,3c-.1.3-3,8.18,1.61,10.4a3.93,3.93,0,0,0,1,.2c1.72,0,4.13-1.51,6.55-4,3.33-3.73,5.85-9.08,4.23-12.42-.1,2.12-2.82,7.37-5.74,10.3-1.71,1.72-3.22,2.42-4.63,2.32a3,3,0,0,1-2.12-1.31C18.64,64.41,19.75,60.17,20.45,58.15Z"/></g><g class="cls-6"><path class="cls-7" d="M33.25,57.14c-.7,2.93-.7,4-2.62,7.17-3.42,5.65-8.56,3.94-10,1.51l.3,5.56a30,30,0,0,0-3,3.63h.3C31.14,76.12,33.25,57.14,33.25,57.14Z"/></g><g class="cls-6"><path class="cls-7" d="M18.44,53.71s-.91,3.23,2.72,3.13c0,0-2.52,3.53-2.92,5.65l-.1-2.12A5.65,5.65,0,0,1,18.44,53.71Z"/></g><path class="cls-3" d="M22.87,52.3h-.8c-.2,0-.51.1-.71.1a7.88,7.88,0,0,0-1.41.5,4.34,4.34,0,0,0-1.81,2.22,5.78,5.78,0,0,0-.41,2.93,8.45,8.45,0,0,0,.51,1.41,2.08,2.08,0,0,0,.4.61c.1.1.2.2.2.3l.1.1.1.1h0a.67.67,0,0,1,.21.71c-.11.3-.21.71-.31,1s-.2.71-.3,1.11a7.59,7.59,0,0,0-.3,2.12,7.53,7.53,0,0,0,0,2.12,6.14,6.14,0,0,0,.6,1.92,3.3,3.3,0,0,0,1.31,1.31l.2.1h.21c.1,0,.1,0,.2.1h.2A2.58,2.58,0,0,0,22,71a5.21,5.21,0,0,0,1.91-.81,10.91,10.91,0,0,0,1.71-1.31,18.19,18.19,0,0,0,3-3.23,20.51,20.51,0,0,0,2.31-3.73,16.69,16.69,0,0,0,.81-2c.1-.31.2-.71.3-1s.1-.71.2-1a4.91,4.91,0,0,0-.2-2.12,4,4,0,0,0-1-1.82h0a.22.22,0,0,1,0-.3.21.21,0,0,1,.31,0,5.78,5.78,0,0,1,1.51,1.92,2.67,2.67,0,0,1,.3,1.21,4.91,4.91,0,0,1,.1,1.21,9.84,9.84,0,0,1-.3,2.42,14.36,14.36,0,0,1-.81,2.22,16.23,16.23,0,0,1-2.42,4,20.52,20.52,0,0,1-3.22,3.43,13.91,13.91,0,0,1-1.91,1.42,6.06,6.06,0,0,1-2.32.91,6.37,6.37,0,0,1-1.31.1.41.41,0,0,1-.3-.1c-.1,0-.21-.11-.31-.11l-.2-.1c-.1,0-.1,0-.2-.1l-.3-.2a4.49,4.49,0,0,1-1.82-1.82,7.8,7.8,0,0,1-.8-4.84,16.3,16.3,0,0,1,.4-2.32c.1-.41.2-.81.3-1.11a5,5,0,0,1,.41-1.12l.2.71-.1-.1-.1-.1-.2-.2a1.39,1.39,0,0,1-.31-.41,2.3,2.3,0,0,1-.5-.8,5.06,5.06,0,0,1-.61-1.72.8.8,0,0,0-.1-.5V56.13c0-.2.1-.3.1-.5s.11-.31.11-.41l.1-.4a.7.7,0,0,1,.2-.4,3.87,3.87,0,0,1,1-1.62,5.29,5.29,0,0,1,1.41-1.21,8.56,8.56,0,0,1,1.71-.71,2.77,2.77,0,0,1,.91-.1h1c.41,0,.61.3.61.71a.72.72,0,0,1-.62.8Z"/><path class="cls-1" d="M20.86,58.86a7,7,0,0,0-1.21.1,7,7,0,0,0-1.51,1.41c.2.2.3.41.5.61,0,0-3.12,8.38,1.61,10.6C23,72.79,27.91,68.75,30.63,64A10.79,10.79,0,0,0,20.86,58.86Z"/><g class="cls-6"><path class="cls-7" d="M20.35,59.06H20l-1.21,2.22a18.09,18.09,0,0,0-1,4.54c-.2,2.33.31,4.85,2.62,6a.59.59,0,0,0,.41.1h.6a2,2,0,0,0,.81-.1.37.37,0,0,0,.3-.1c.1,0,.3-.1.4-.1a3.1,3.1,0,0,0,1-.51c.1,0,.1-.1.2-.1a14.59,14.59,0,0,0,1.31-.91,23.52,23.52,0,0,0,5.24-6,10.39,10.39,0,0,0-1.51-1.92c-2,3.23-4.84,6.06-7.25,5.75C18.24,67.44,19.45,62,20.35,59.06Z"/></g><g class="cls-8"><path class="cls-9" d="M19.55,59.56s5.94.11,8.76,3.23a3.38,3.38,0,0,1,.81,3.74l1.71-2.22C30.73,64.31,26.3,57.14,19.55,59.56Z"/></g><path class="cls-3" d="M18.14,60.78c.1-.31.2-.51.3-.81.1-.1.1-.2.2-.41l.2-.4a14.59,14.59,0,0,1,.91-1.31,10.62,10.62,0,0,1,1.11-1.21,6.45,6.45,0,0,1,1.31-1h.1v.1h0A8.4,8.4,0,0,0,21.46,57c-.2.4-.5.91-.7,1.31s-.41.91-.61,1.42a8.7,8.7,0,0,1-.7,1.31h0a.66.66,0,0,1-.91.2h0C18.24,61.38,18.14,61.08,18.14,60.78Z"/><path class="cls-3" d="M21.46,72.49a2.87,2.87,0,0,1-1.31-.31C15.42,70,17.43,62.9,18,61.18a1.49,1.49,0,0,1-.31-.4.62.62,0,0,1,0-.81,5.73,5.73,0,0,1,1.62-1.52c.1,0,.1-.1.2-.1a8.17,8.17,0,0,1,1.31-.1A11.48,11.48,0,0,1,31.34,63.7a.88.88,0,0,1,0,.71C28.82,68.65,24.59,72.49,21.46,72.49ZM19,60.47l.1.1a.67.67,0,0,1,.21.71c0,.1-2.93,7.88,1.31,9.79,2.11,1,6.55-2.42,9.37-7.06a10,10,0,0,0-9.17-4.45h0a3.82,3.82,0,0,0-1,.11Z"/><path class="cls-11" d="M29.83,48.06a4,4,0,0,0,.5-5.56c-2.82-3.93-11.59-1.21-11.49,4.55s6.25,5.14,6.85,5.14A4.36,4.36,0,0,0,29.83,48.06Z"/><path class="cls-3" d="M29.22,48v-.4a.58.58,0,0,0-.1-.4,1.93,1.93,0,0,0-.2-.71,2.34,2.34,0,0,0-.71-1.11,1.86,1.86,0,0,0-.6-.4,1.91,1.91,0,0,0-.81-.21,4.91,4.91,0,0,0-1.71,0h0c-.1,0-.1,0-.1-.1a.1.1,0,0,1,.1-.1,4.67,4.67,0,0,1,1.81-.6h1c.4.1.71.2,1,.3a5.58,5.58,0,0,1,.91.71l.6.9c.1.31.2.71.3,1V48a.54.54,0,0,1-.53.54.47.47,0,0,1-.17,0C29.52,48.56,29.22,48.36,29.22,48Z"/><path class="cls-3" d="M24.89,52.7A7.71,7.71,0,0,1,19.65,51a5.46,5.46,0,0,1-1.51-4.14c0-2.92,2.11-5.55,5.44-6.56,3-1,5.84-.3,7.35,1.72a4.59,4.59,0,0,1-.4,6.26,4.8,4.8,0,0,1-1.41,3,4.64,4.64,0,0,1-3.43,1.31h-.2A1.25,1.25,0,0,1,24.89,52.7ZM26.2,41.19a6.55,6.55,0,0,0-2.32.4c-2.12.71-4.53,2.53-4.53,5.35a4.17,4.17,0,0,0,1.1,3.13c1.42,1.42,3.93,1.32,4.84,1.32h.3a3.85,3.85,0,0,0,2.52-1,3.35,3.35,0,0,0,1-2.43.79.79,0,0,1,.2-.5,3.51,3.51,0,0,0,.4-4.75A4.45,4.45,0,0,0,26.2,41.19Z"/><g class="cls-6"><path class="cls-7" d="M30.43,42.5s.4,2.93-1.91,2.12c0,0,0,5.25-4.24,5.15-3.62,0-5-1.92-5.44-2.52.3,5.35,6.25,4.74,6.85,4.74a4.26,4.26,0,0,0,4.24-4A4.22,4.22,0,0,0,30.43,42.5Z"/></g><g class="cls-6"><path class="cls-10" d="M50.18.81s3.22,19,22.47,13.12l.3,1.21A13,13,0,0,1,65.09,17C58.54,16.46,49.78,12.22,50.18.81Z"/><path class="cls-3" d="M66.2,17.06H65.09A17.31,17.31,0,0,1,55,13C51.59,10.1,50,6,50.18.81V0l.1.81C50.28.91,51.79,9,58,12.92c3.93,2.43,8.76,2.73,14.61,1h.1l.4,1.31h0A14.82,14.82,0,0,1,66.2,17.06ZM50.28,1.62c0,10.39,7.86,14.73,14.81,15.24a13.73,13.73,0,0,0,7.76-1.72l-.3-1c-5.85,1.72-10.68,1.42-14.61-1C52.7,9.79,50.78,3.63,50.28,1.62Z"/></g><path class="cls-7" d="M61.46,23.42c.51-1.51,1.72-2.52,2.83-2.22s1.51,1.92,1,3.43-1.71,2.53-2.82,2.22S61,24.94,61.46,23.42Z"/><path class="cls-12" d="M63.28,23.22c.2-.5.6-.81.91-.71a.85.85,0,0,1,.3,1.11c-.2.51-.61.81-.91.71A.84.84,0,0,1,63.28,23.22Z"/><path class="cls-3" d="M73,48.46a7.66,7.66,0,0,1-5.24-1.82,9.09,9.09,0,0,1-2.82-6.26.66.66,0,0,1,.6-.7.75.75,0,0,1,.71.6,8.42,8.42,0,0,0,2.42,5.25c1.31,1.21,3.22,1.62,5.54,1.41.4,0,.71.21.71.61a.67.67,0,0,1-.61.71A3.24,3.24,0,0,1,73,48.46Z"/><path class="cls-3" d="M24.59,84.2,14,94.9l9.57-11.61a.64.64,0,0,1,.89-.12l0,0a.69.69,0,0,1,.14,1Z"/><path class="cls-3" d="M20.15,71.68,0,95,19.25,70.87a.63.63,0,0,1,.89-.11h0C20.45,71,20.35,71.38,20.15,71.68Z"/><path class="cls-3" d="M17.73,58.76,1.21,75.62,16.83,58a.57.57,0,0,1,.79-.12.43.43,0,0,1,.11.12C17.94,58.05,17.94,58.45,17.73,58.76Z"/><path class="cls-3" d="M63.88,54.62,47.56,73.4,62.88,53.81a.63.63,0,0,1,.89-.11h0a.56.56,0,0,1,.21.77A.49.49,0,0,1,63.88,54.62Z"/><path class="cls-3" d="M59,55.63,51.19,63.8l6.75-9a.63.63,0,0,1,.89-.11h0a.56.56,0,0,1,.22.77A.76.76,0,0,1,59,55.63Z"/><path class="cls-3" d="M18.54,69.16,8.06,80.36l9.47-12a.64.64,0,0,1,.91-.1.65.65,0,0,1,.1.91Z"/><path class="cls-3" d="M20.56,85.11l-3.93,3.63,2.92-4.54a.64.64,0,0,1,.9-.2.65.65,0,0,1,.21.9C20.66,85,20.66,85,20.56,85.11Z"/><path class="cls-3" d="M19.25,53.61l-8.57,7.77,7.56-8.68a.63.63,0,0,1,.89-.11h0a.66.66,0,0,1,.17.93Z"/></g></g></g></g></svg>